<?xml version="1.0" encoding="utf-8"?>
<svg viewBox="50.018 72.1318 375.6607 139.8246" xmlns="http://www.w3.org/2000/svg">
  <defs>
    <clipPath id="id1">
      <path d="M 19.550781 21.109375 L 528.425781 21.109375 L 528.425781 206.972656 L 19.550781 206.972656 Z M 19.550781 21.109375 " clip-rule="nonzero"/>
    </clipPath>
    <clipPath id="id2">
      <path d="M 29 24 L 132 24 L 132 193 L 29 193 Z M 29 24 " clip-rule="nonzero"/>
    </clipPath>
    <clipPath id="id3">
      <path d="M 33.132812 20.765625 L 163.5 23.746094 L 159.304688 207.3125 L 28.9375 204.332031 Z M 33.132812 20.765625 " clip-rule="nonzero"/>
    </clipPath>
    <clipPath id="id4">
      <path d="M 33.132812 20.765625 L 163.5 23.746094 L 159.304688 207.3125 L 28.9375 204.332031 Z M 33.132812 20.765625 " clip-rule="nonzero"/>
    </clipPath>
    <clipPath id="id5">
      <path d="M 41 36 L 163 36 L 163 206 L 41 206 Z M 41 36 " clip-rule="nonzero"/>
    </clipPath>
    <clipPath id="id6">
      <path d="M 33.132812 20.765625 L 163.5 23.746094 L 159.304688 207.3125 L 28.9375 204.332031 Z M 33.132812 20.765625 " clip-rule="nonzero"/>
    </clipPath>
    <clipPath id="id7">
      <path d="M 33.132812 20.765625 L 163.5 23.746094 L 159.304688 207.3125 L 28.9375 204.332031 Z M 33.132812 20.765625 " clip-rule="nonzero"/>
    </clipPath>
    <clipPath id="id8">
      <path d="M 44.699219 34.070312 L 163.347656 36.78125 L 159.449219 207.316406 L 40.800781 204.605469 Z M 44.699219 34.070312 " clip-rule="nonzero"/>
    </clipPath>
    <clipPath id="id9">
      <path d="M 44.699219 34.070312 L 163.058594 36.777344 L 159.160156 207.308594 L 40.800781 204.605469 Z M 44.699219 34.070312 " clip-rule="nonzero"/>
    </clipPath>
    <clipPath id="id10">
      <path d="M 31 28 L 160 28 L 160 198 L 31 198 Z M 31 28 " clip-rule="nonzero"/>
    </clipPath>
    <clipPath id="id11">
      <path d="M 33.132812 20.765625 L 163.5 23.746094 L 159.304688 207.3125 L 28.9375 204.332031 Z M 33.132812 20.765625 " clip-rule="nonzero"/>
    </clipPath>
    <clipPath id="id12">
      <path d="M 33.132812 20.765625 L 163.5 23.746094 L 159.304688 207.3125 L 28.9375 204.332031 Z M 33.132812 20.765625 " clip-rule="nonzero"/>
    </clipPath>
    <clipPath id="id13">
      <path d="M 63 48 L 148 48 L 148 198 L 63 198 Z M 63 48 " clip-rule="nonzero"/>
    </clipPath>
    <clipPath id="id14">
      <path d="M 33.132812 20.765625 L 163.5 23.746094 L 159.304688 207.3125 L 28.9375 204.332031 Z M 33.132812 20.765625 " clip-rule="nonzero"/>
    </clipPath>
    <clipPath id="id15">
      <path d="M 33.132812 20.765625 L 163.5 23.746094 L 159.304688 207.3125 L 28.9375 204.332031 Z M 33.132812 20.765625 " clip-rule="nonzero"/>
    </clipPath>
    <clipPath id="id16">
      <path d="M 40 48 L 150 48 L 150 190 L 40 190 Z M 40 48 " clip-rule="nonzero"/>
    </clipPath>
    <clipPath id="id17">
      <path d="M 33.132812 20.765625 L 163.5 23.746094 L 159.304688 207.3125 L 28.9375 204.332031 Z M 33.132812 20.765625 " clip-rule="nonzero"/>
    </clipPath>
    <clipPath id="id18">
      <path d="M 33.132812 20.765625 L 163.5 23.746094 L 159.304688 207.3125 L 28.9375 204.332031 Z M 33.132812 20.765625 " clip-rule="nonzero"/>
    </clipPath>
  </defs>
  <g clip-path="url(#id1)" transform="matrix(0.7382180094718933, 0, 0, 0.7522979378700256, 35.585243225097656, 56.251289367675774)" style="">
    <path fill="#8b0c2d" d="M 19.550781 21.109375 L 528.425781 21.109375 L 528.425781 206.972656 L 19.550781 206.972656 Z M 19.550781 21.109375 " fill-opacity="1" fill-rule="nonzero"/>
  </g>
  <g fill="#ffffff" fill-opacity="1" transform="matrix(0.7382180094718933, 0, 0, 0.7522979378700256, 40.95517349243164, 56.84794616699218)" style="">
    <g transform="translate(168.381416, 73.835224)">
      <g>
        <path d="M 30.335938 -43.851562 L 5.746094 -43.851562 C 5.320312 -43.851562 4.257812 -43.691406 4.257812 -41.988281 L 4.257812 -37.785156 C 4.257812 -36.136719 5.320312 -35.976562 5.746094 -35.976562 L 28.949219 -35.976562 C 30.28125 -35.976562 31.238281 -35.601562 31.769531 -34.804688 C 32.355469 -34.007812 32.621094 -32.730469 32.621094 -30.972656 C 32.621094 -29.21875 32.355469 -27.941406 31.769531 -27.140625 C 31.238281 -26.34375 30.28125 -25.96875 28.949219 -25.96875 L 5.746094 -25.96875 C 5.320312 -25.96875 4.257812 -25.8125 4.257812 -24.160156 L 4.257812 -1.808594 C 4.257812 -0.160156 5.320312 0.0546875 5.746094 0.0546875 L 10.644531 0.0546875 C 11.070312 0.0546875 12.132812 -0.160156 12.132812 -1.808594 L 12.132812 -18.09375 L 30.335938 -18.148438 C 33.953125 -18.148438 36.5625 -19.265625 38.15625 -21.5 C 39.753906 -23.734375 40.5 -26.929688 40.5 -31.132812 L 40.5 -30.8125 C 40.5 -35.070312 39.753906 -38.265625 38.15625 -40.445312 C 36.5625 -42.734375 33.953125 -43.851562 30.335938 -43.851562 Z M 30.335938 -43.851562 "/>
      </g>
    </g>
  </g>
  <g fill="#ffffff" fill-opacity="1" transform="matrix(0.7382180094718933, 0, 0, 0.7522979378700256, 35.585243225097656, 56.251289367675774)" style="">
    <g transform="translate(214.994044, 73.835224)">
      <g>
        <path d="M 40.550781 -31.132812 C 40.550781 -31.078125 40.550781 -31.027344 40.550781 -30.972656 C 40.550781 -30.917969 40.550781 -30.867188 40.550781 -30.8125 Z M 41.5625 -2.289062 L 32.25 -18.253906 C 34.859375 -18.574219 36.878906 -19.691406 38.210938 -21.5 C 39.699219 -23.683594 40.5 -26.820312 40.550781 -30.972656 C 40.5 -35.125 39.699219 -38.265625 38.210938 -40.445312 C 36.613281 -42.734375 33.953125 -43.851562 30.335938 -43.851562 L 5.800781 -43.851562 C 5.320312 -43.851562 4.257812 -43.691406 4.257812 -41.988281 L 4.257812 -37.785156 C 4.257812 -36.136719 5.320312 -35.976562 5.800781 -35.976562 L 28.949219 -35.976562 C 30.335938 -35.976562 31.238281 -35.601562 31.769531 -34.804688 C 32.355469 -34.007812 32.621094 -32.730469 32.621094 -30.972656 C 32.621094 -29.21875 32.355469 -27.941406 31.769531 -27.140625 C 31.238281 -26.34375 30.335938 -25.96875 28.949219 -25.96875 L 5.800781 -25.96875 C 5.320312 -25.96875 4.257812 -25.8125 4.257812 -24.160156 L 4.257812 -1.808594 C 4.257812 -0.160156 5.320312 0.0546875 5.800781 0.0546875 L 10.644531 0.0546875 C 11.121094 0.0546875 12.132812 -0.160156 12.132812 -1.808594 L 12.132812 -18.09375 L 23.363281 -18.09375 L 32.996094 -1.011719 C 33.207031 -0.691406 33.367188 -0.425781 33.582031 -0.265625 C 33.847656 -0.0546875 34.21875 0.0546875 34.699219 0.0546875 L 40.550781 0.0546875 C 41.191406 0.0546875 41.671875 -0.371094 41.777344 -1.011719 C 41.828125 -1.542969 41.777344 -1.96875 41.5625 -2.289062 Z M 41.5625 -2.289062 "/>
      </g>
    </g>
  </g>
  <g fill="#ffffff" fill-opacity="1" transform="matrix(0.7382180094718933, 0, 0, 0.7522979378700256, 35.585243225097656, 56.251289367675774)" style="">
    <g transform="translate(262.93694, 73.835224)">
      <g>
        <path d="M 10.644531 -43.851562 L 5.746094 -43.851562 C 5.320312 -43.851562 4.257812 -43.640625 4.257812 -41.988281 L 4.257812 -1.808594 C 4.257812 -0.160156 5.320312 0.0546875 5.746094 0.0546875 L 10.644531 0.0546875 C 11.070312 0.0546875 12.132812 -0.160156 12.132812 -1.808594 L 12.132812 -41.988281 C 12.132812 -43.640625 11.070312 -43.851562 10.644531 -43.851562 Z M 10.644531 -43.851562 "/>
      </g>
    </g>
  </g>
  <g fill="#ffffff" fill-opacity="1" transform="matrix(0.7382180094718933, 0, 0, 0.7522979378700256, 35.585243225097656, 56.251289367675774)" style="">
    <g transform="translate(281.188135, 73.835224)">
      <g>
        <path d="M 29.960938 -26.183594 L 13.996094 -26.183594 C 13.199219 -26.183594 12.1875 -26.503906 12.1875 -29.109375 L 12.1875 -33.046875 C 12.1875 -34.007812 12.347656 -34.75 12.613281 -35.285156 C 12.824219 -35.601562 13.144531 -35.976562 14.050781 -35.976562 L 35.710938 -35.976562 C 36.136719 -35.976562 37.199219 -36.136719 37.199219 -37.785156 L 37.199219 -42.042969 C 37.199219 -43.691406 36.136719 -43.851562 35.710938 -43.851562 L 12.773438 -43.851562 C 9.84375 -43.851562 7.714844 -42.894531 6.332031 -40.925781 C 4.949219 -39.007812 4.257812 -36.453125 4.257812 -33.367188 L 4.257812 -29.324219 C 4.257812 -25.652344 5.003906 -22.671875 6.332031 -20.808594 C 7.984375 -18.625 10.429688 -18.308594 12.664062 -18.308594 L 28.632812 -18.308594 C 29.429688 -18.308594 30.492188 -17.988281 30.492188 -15.378906 L 30.492188 -10.804688 C 30.492188 -9.84375 30.335938 -9.101562 30.015625 -8.566406 C 29.800781 -8.25 29.484375 -7.875 28.578125 -7.875 L 5.855469 -7.875 C 5.375 -7.875 4.3125 -7.714844 4.3125 -6.066406 L 4.3125 -1.808594 C 4.3125 -0.160156 5.375 0 5.855469 0 L 29.855469 0 C 32.78125 0 34.964844 -1.011719 36.347656 -2.980469 C 37.679688 -4.894531 38.371094 -7.398438 38.371094 -10.484375 L 38.371094 -15.167969 C 38.371094 -18.625 37.679688 -21.339844 36.292969 -23.257812 C 34.859375 -25.171875 32.730469 -26.183594 29.960938 -26.183594 Z M 29.960938 -26.183594 "/>
      </g>
    </g>
  </g>
  <g fill="#ffffff" fill-opacity="1" transform="matrix(0.7382180094718933, 0, 0, 0.7522979378700256, 35.585243225097656, 56.251289367675774)" style="">
    <g transform="translate(325.672321, 73.835224)">
      <g>
        <path d="M 48.695312 -43.851562 L 43.90625 -43.851562 C 43.160156 -43.851562 42.574219 -43.796875 42.042969 -43.640625 C 41.511719 -43.480469 41.03125 -43.214844 40.605469 -42.839844 C 40.234375 -42.414062 39.859375 -41.9375 39.542969 -41.296875 C 39.222656 -40.660156 38.957031 -39.859375 38.636719 -38.847656 L 29.21875 -15.328125 C 29.164062 -15.113281 29.109375 -15.113281 29.058594 -15.113281 L 28.523438 -15.113281 C 28.523438 -15.113281 28.417969 -15.113281 28.367188 -15.328125 L 19 -38.847656 C 18.679688 -39.859375 18.359375 -40.660156 18.09375 -41.296875 C 17.773438 -41.9375 17.402344 -42.414062 17.03125 -42.839844 C 16.605469 -43.214844 16.070312 -43.480469 15.539062 -43.640625 C 15.007812 -43.796875 14.367188 -43.851562 13.675781 -43.851562 L 8.78125 -43.851562 C 6.972656 -43.851562 5.746094 -43.265625 5.109375 -42.148438 C 4.523438 -41.136719 4.257812 -39.433594 4.257812 -36.988281 L 4.257812 -1.808594 C 4.257812 -0.160156 5.320312 0.0546875 5.800781 0.0546875 L 10.378906 0.0546875 C 10.855469 0.0546875 11.867188 -0.160156 11.867188 -1.808594 L 11.867188 -33.792969 C 11.867188 -33.847656 11.867188 -33.898438 11.867188 -33.898438 L 12.132812 -33.898438 C 12.1875 -33.898438 12.238281 -33.898438 12.292969 -33.742188 L 21.394531 -11.230469 C 21.765625 -10.113281 22.140625 -9.152344 22.511719 -8.355469 C 22.9375 -7.558594 23.363281 -6.917969 23.789062 -6.386719 C 24.320312 -5.855469 24.851562 -5.429688 25.492188 -5.214844 C 26.128906 -5.003906 26.820312 -4.894531 27.621094 -4.894531 L 29.800781 -4.894531 C 30.601562 -4.894531 31.34375 -5.003906 31.929688 -5.214844 C 32.570312 -5.429688 33.15625 -5.855469 33.632812 -6.386719 C 34.058594 -6.917969 34.539062 -7.558594 34.910156 -8.355469 C 35.285156 -9.152344 35.65625 -10.113281 36.027344 -11.230469 L 45.183594 -33.792969 C 45.183594 -33.898438 45.234375 -33.898438 45.289062 -33.898438 L 45.554688 -33.898438 C 45.554688 -33.898438 45.554688 -33.847656 45.554688 -33.792969 L 45.554688 -1.808594 C 45.554688 -0.160156 46.621094 0.0546875 47.046875 0.0546875 L 51.621094 0.0546875 C 52.101562 0.0546875 53.164062 -0.160156 53.164062 -1.808594 L 53.164062 -36.988281 C 53.164062 -39.433594 52.898438 -41.136719 52.3125 -42.148438 C 51.675781 -43.265625 50.449219 -43.851562 48.695312 -43.851562 Z M 48.695312 -43.851562 "/>
      </g>
    </g>
  </g>
  <g fill="#ffffff" fill-opacity="1" transform="matrix(0.7382180094718933, 0, 0, 0.7522979378700256, 35.585243225097656, 56.251289367675774)" style="">
    <g transform="translate(168.381416, 132.29222)">
      <g>
        <path d="M 29.960938 -26.183594 L 13.996094 -26.183594 C 13.199219 -26.183594 12.1875 -26.503906 12.1875 -29.109375 L 12.1875 -33.046875 C 12.1875 -34.007812 12.347656 -34.75 12.613281 -35.285156 C 12.824219 -35.601562 13.144531 -35.976562 14.050781 -35.976562 L 35.710938 -35.976562 C 36.136719 -35.976562 37.199219 -36.136719 37.199219 -37.785156 L 37.199219 -42.042969 C 37.199219 -43.691406 36.136719 -43.851562 35.710938 -43.851562 L 12.773438 -43.851562 C 9.84375 -43.851562 7.714844 -42.894531 6.332031 -40.925781 C 4.949219 -39.007812 4.257812 -36.453125 4.257812 -33.367188 L 4.257812 -29.324219 C 4.257812 -25.652344 5.003906 -22.671875 6.332031 -20.808594 C 7.984375 -18.625 10.429688 -18.308594 12.664062 -18.308594 L 28.632812 -18.308594 C 29.429688 -18.308594 30.492188 -17.988281 30.492188 -15.378906 L 30.492188 -10.804688 C 30.492188 -9.84375 30.335938 -9.101562 30.015625 -8.566406 C 29.800781 -8.25 29.484375 -7.875 28.578125 -7.875 L 5.855469 -7.875 C 5.375 -7.875 4.3125 -7.714844 4.3125 -6.066406 L 4.3125 -1.808594 C 4.3125 -0.160156 5.375 0 5.855469 0 L 29.855469 0 C 32.78125 0 34.964844 -1.011719 36.347656 -2.980469 C 37.679688 -4.894531 38.371094 -7.398438 38.371094 -10.484375 L 38.371094 -15.167969 C 38.371094 -18.625 37.679688 -21.339844 36.292969 -23.257812 C 34.859375 -25.171875 32.730469 -26.183594 29.960938 -26.183594 Z M 29.960938 -26.183594 "/>
      </g>
    </g>
  </g>
  <g fill="#ffffff" fill-opacity="1" transform="matrix(0.7382180094718933, 0, 0, 0.7522979378700256, 35.585243225097656, 56.251289367675774)" style="">
    <g transform="translate(212.865602, 132.29222)">
      <g>
        <path d="M 36.773438 -43.851562 L 17.402344 -43.851562 C 15.0625 -43.851562 13.039062 -43.53125 11.390625 -42.945312 C 9.6875 -42.308594 8.300781 -41.296875 7.289062 -39.96875 C 6.226562 -38.636719 5.429688 -36.878906 4.949219 -34.75 C 4.46875 -32.675781 4.257812 -30.121094 4.257812 -27.195312 L 4.257812 -16.65625 C 4.257812 -13.675781 4.46875 -11.121094 4.949219 -8.992188 C 5.429688 -6.917969 6.226562 -5.164062 7.289062 -3.777344 C 8.355469 -2.449219 9.738281 -1.4375 11.390625 -0.851562 C 13.039062 -0.265625 15.0625 0.0546875 17.402344 0.0546875 L 36.773438 0.0546875 C 37.199219 0.0546875 38.265625 -0.160156 38.265625 -1.808594 L 38.265625 -6.015625 C 38.265625 -7.664062 37.199219 -7.875 36.773438 -7.875 L 17.667969 -7.875 C 16.550781 -7.875 15.59375 -7.984375 14.902344 -8.25 C 14.210938 -8.460938 13.730469 -8.835938 13.304688 -9.417969 C 12.878906 -9.953125 12.613281 -10.75 12.398438 -11.761719 C 12.238281 -12.824219 12.132812 -14.15625 12.132812 -15.753906 L 12.132812 -28.152344 C 12.132812 -29.75 12.238281 -31.078125 12.398438 -32.089844 C 12.613281 -33.101562 12.878906 -33.847656 13.304688 -34.433594 C 13.730469 -35.019531 14.210938 -35.390625 14.902344 -35.601562 C 15.59375 -35.871094 16.550781 -35.976562 17.667969 -35.976562 L 36.773438 -35.976562 C 37.199219 -35.976562 38.265625 -36.1875 38.265625 -37.890625 L 38.265625 -41.988281 C 38.265625 -43.640625 37.199219 -43.851562 36.773438 -43.851562 Z M 36.773438 -43.851562 "/>
      </g>
    </g>
  </g>
  <g fill="#ffffff" fill-opacity="1" transform="matrix(0.7382180094718933, 0, 0, 0.7522979378700256, 35.585243225097656, 56.251289367675774)" style="">
    <g transform="translate(257.243367, 132.29222)">
      <g>
        <path d="M 10.644531 -43.851562 L 5.746094 -43.851562 C 5.320312 -43.851562 4.257812 -43.640625 4.257812 -41.988281 L 4.257812 -1.808594 C 4.257812 -0.160156 5.320312 0.0546875 5.746094 0.0546875 L 10.644531 0.0546875 C 11.070312 0.0546875 12.132812 -0.160156 12.132812 -1.808594 L 12.132812 -41.988281 C 12.132812 -43.640625 11.070312 -43.851562 10.644531 -43.851562 Z M 10.644531 -43.851562 "/>
      </g>
    </g>
  </g>
  <g fill="#ffffff" fill-opacity="1" transform="matrix(0.7382180094718933, 0, 0, 0.7522979378700256, 35.585243225097656, 56.251289367675774)" style="">
    <g transform="translate(275.494562, 132.29222)">
      <g>
        <path d="M 36.242188 -9.527344 L 17.507812 -9.527344 C 16.390625 -9.527344 15.488281 -9.6875 14.742188 -9.898438 C 14.050781 -10.164062 13.570312 -10.539062 13.144531 -11.070312 C 12.71875 -11.65625 12.398438 -12.453125 12.238281 -13.464844 C 12.1875 -13.730469 12.1875 -14.101562 12.132812 -14.367188 C 12.132812 -14.367188 12.1875 -18.199219 12.238281 -18.199219 L 36.027344 -18.199219 C 36.453125 -18.199219 37.519531 -18.414062 37.519531 -20.0625 L 37.519531 -24.265625 C 37.519531 -25.917969 36.453125 -26.078125 36.027344 -26.078125 L 8.566406 -26.023438 C 7.023438 -25.917969 5.695312 -25.117188 4.949219 -23.789062 C 4.683594 -23.363281 4.46875 -22.9375 4.363281 -22.457031 L 4.257812 -15.753906 L 4.257812 -15.488281 C 4.3125 -12.984375 4.578125 -10.855469 4.949219 -9.101562 C 5.429688 -6.972656 6.226562 -5.214844 7.238281 -3.886719 C 8.300781 -2.5 9.6875 -1.542969 11.390625 -0.957031 C 13.039062 -0.320312 15.007812 -0.0546875 17.347656 -0.0546875 L 36.242188 -0.0546875 C 36.71875 -0.0546875 37.785156 -0.210938 37.785156 -1.863281 L 37.785156 -7.714844 C 37.785156 -9.367188 36.71875 -9.527344 36.242188 -9.527344 Z M 36.292969 -43.957031 L 5.695312 -43.957031 C 5.269531 -43.957031 4.257812 -43.746094 4.257812 -42.042969 L 4.257812 -37.890625 C 4.257812 -36.242188 5.269531 -36.082031 5.695312 -36.082031 L 36.292969 -36.027344 C 36.71875 -36.027344 37.785156 -36.242188 37.785156 -37.890625 L 37.785156 -42.097656 C 37.785156 -43.746094 36.71875 -43.957031 36.292969 -43.957031 Z M 36.292969 -43.957031 "/>
      </g>
    </g>
  </g>
  <g fill="#ffffff" fill-opacity="1" transform="matrix(0.7382180094718933, 0, 0, 0.7522979378700256, 35.585243225097656, 56.251289367675774)" style="">
    <g transform="translate(319.393435, 132.29222)">
      <g>
        <path d="M 41.9375 -43.851562 L 37.199219 -43.851562 C 36.71875 -43.851562 35.710938 -43.691406 35.710938 -41.988281 L 35.710938 -10.003906 C 35.710938 -9.953125 35.710938 -9.953125 35.710938 -9.898438 L 35.445312 -9.898438 C 35.390625 -9.898438 35.335938 -9.898438 35.285156 -10.058594 L 18.464844 -39.96875 C 18.042969 -40.765625 17.667969 -41.402344 17.296875 -41.882812 C 16.921875 -42.414062 16.550781 -42.839844 16.179688 -43.105469 C 15.753906 -43.425781 15.273438 -43.640625 14.6875 -43.746094 C 14.15625 -43.796875 13.515625 -43.851562 12.824219 -43.851562 L 8.835938 -43.851562 C 7.289062 -43.851562 6.121094 -43.320312 5.375 -42.363281 C 4.628906 -41.351562 4.257812 -39.59375 4.257812 -36.988281 L 4.257812 -1.808594 C 4.257812 -0.160156 5.320312 0.0546875 5.800781 0.0546875 L 10.539062 0.0546875 C 11.015625 0.0546875 12.027344 -0.160156 12.027344 -1.808594 L 12.027344 -33.792969 C 12.027344 -33.847656 12.027344 -33.898438 12.027344 -33.898438 L 12.292969 -33.898438 C 12.292969 -33.898438 12.347656 -33.898438 12.453125 -33.742188 L 29.324219 -3.832031 C 29.75 -2.980469 30.175781 -2.339844 30.546875 -1.863281 C 30.917969 -1.332031 31.292969 -0.957031 31.71875 -0.691406 C 32.144531 -0.371094 32.621094 -0.210938 33.15625 -0.105469 C 33.632812 0 34.21875 0.0546875 34.964844 0.0546875 L 38.847656 0.0546875 C 40.394531 0.0546875 41.5625 -0.480469 42.308594 -1.488281 C 43.054688 -2.449219 43.425781 -4.203125 43.425781 -6.8125 L 43.425781 -41.988281 C 43.425781 -43.691406 42.363281 -43.851562 41.9375 -43.851562 Z M 41.9375 -43.851562 "/>
      </g>
    </g>
  </g>
  <g fill="#ffffff" fill-opacity="1" transform="matrix(0.7382180094718933, 0, 0, 0.7522979378700256, 35.585243225097656, 56.251289367675774)" style="">
    <g transform="translate(368.932671, 132.29222)">
      <g>
        <path d="M 36.773438 -43.851562 L 17.402344 -43.851562 C 15.0625 -43.851562 13.039062 -43.53125 11.390625 -42.945312 C 9.6875 -42.308594 8.300781 -41.296875 7.289062 -39.96875 C 6.226562 -38.636719 5.429688 -36.878906 4.949219 -34.75 C 4.46875 -32.675781 4.257812 -30.121094 4.257812 -27.195312 L 4.257812 -16.65625 C 4.257812 -13.675781 4.46875 -11.121094 4.949219 -8.992188 C 5.429688 -6.917969 6.226562 -5.164062 7.289062 -3.777344 C 8.355469 -2.449219 9.738281 -1.4375 11.390625 -0.851562 C 13.039062 -0.265625 15.0625 0.0546875 17.402344 0.0546875 L 36.773438 0.0546875 C 37.199219 0.0546875 38.265625 -0.160156 38.265625 -1.808594 L 38.265625 -6.015625 C 38.265625 -7.664062 37.199219 -7.875 36.773438 -7.875 L 17.667969 -7.875 C 16.550781 -7.875 15.59375 -7.984375 14.902344 -8.25 C 14.210938 -8.460938 13.730469 -8.835938 13.304688 -9.417969 C 12.878906 -9.953125 12.613281 -10.75 12.398438 -11.761719 C 12.238281 -12.824219 12.132812 -14.15625 12.132812 -15.753906 L 12.132812 -28.152344 C 12.132812 -29.75 12.238281 -31.078125 12.398438 -32.089844 C 12.613281 -33.101562 12.878906 -33.847656 13.304688 -34.433594 C 13.730469 -35.019531 14.210938 -35.390625 14.902344 -35.601562 C 15.59375 -35.871094 16.550781 -35.976562 17.667969 -35.976562 L 36.773438 -35.976562 C 37.199219 -35.976562 38.265625 -36.1875 38.265625 -37.890625 L 38.265625 -41.988281 C 38.265625 -43.640625 37.199219 -43.851562 36.773438 -43.851562 Z M 36.773438 -43.851562 "/>
      </g>
    </g>
  </g>
  <g fill="#ffffff" fill-opacity="1" transform="matrix(0.7382180094718933, 0, 0, 0.7522979378700256, 35.585243225097656, 56.251289367675774)" style="">
    <g transform="translate(413.310425, 132.29222)">
      <g>
        <path d="M 36.242188 -9.527344 L 17.507812 -9.527344 C 16.390625 -9.527344 15.488281 -9.6875 14.742188 -9.898438 C 14.050781 -10.164062 13.570312 -10.539062 13.144531 -11.070312 C 12.71875 -11.65625 12.398438 -12.453125 12.238281 -13.464844 C 12.1875 -13.730469 12.1875 -14.101562 12.132812 -14.367188 C 12.132812 -14.367188 12.1875 -18.199219 12.238281 -18.199219 L 36.027344 -18.199219 C 36.453125 -18.199219 37.519531 -18.414062 37.519531 -20.0625 L 37.519531 -24.265625 C 37.519531 -25.917969 36.453125 -26.078125 36.027344 -26.078125 L 8.566406 -26.023438 C 7.023438 -25.917969 5.695312 -25.117188 4.949219 -23.789062 C 4.683594 -23.363281 4.46875 -22.9375 4.363281 -22.457031 L 4.257812 -15.753906 L 4.257812 -15.488281 C 4.3125 -12.984375 4.578125 -10.855469 4.949219 -9.101562 C 5.429688 -6.972656 6.226562 -5.214844 7.238281 -3.886719 C 8.300781 -2.5 9.6875 -1.542969 11.390625 -0.957031 C 13.039062 -0.320312 15.007812 -0.0546875 17.347656 -0.0546875 L 36.242188 -0.0546875 C 36.71875 -0.0546875 37.785156 -0.210938 37.785156 -1.863281 L 37.785156 -7.714844 C 37.785156 -9.367188 36.71875 -9.527344 36.242188 -9.527344 Z M 36.292969 -43.957031 L 5.695312 -43.957031 C 5.269531 -43.957031 4.257812 -43.746094 4.257812 -42.042969 L 4.257812 -37.890625 C 4.257812 -36.242188 5.269531 -36.082031 5.695312 -36.082031 L 36.292969 -36.027344 C 36.71875 -36.027344 37.785156 -36.242188 37.785156 -37.890625 L 37.785156 -42.097656 C 37.785156 -43.746094 36.71875 -43.957031 36.292969 -43.957031 Z M 36.292969 -43.957031 "/>
      </g>
    </g>
  </g>
  <g fill="#ffffff" fill-opacity="1" transform="matrix(0.7382180094718933, 0, 0, 0.7522979378700256, 35.585243225097656, 56.251289367675774)" style="">
    <g transform="translate(168.381416, 190.749216)">
      <g>
        <path d="M 32.78125 -38.902344 C 32.675781 -39.167969 32.570312 -39.488281 32.464844 -39.699219 C 31.613281 -42.46875 29.058594 -44.4375 26.128906 -44.4375 C 24.800781 -44.4375 23.523438 -44.066406 22.457031 -43.320312 C 22.140625 -43.160156 21.871094 -42.945312 21.660156 -42.789062 C 20.863281 -42.097656 20.0625 -40.820312 19.316406 -38.902344 L 4.46875 -2.023438 C 4.3125 -1.542969 4.257812 -1.0625 4.363281 -0.746094 C 4.417969 -0.425781 4.683594 0.0546875 5.535156 0.0546875 L 11.390625 0.0546875 C 12.082031 0.0546875 12.613281 -0.371094 12.878906 -1.0625 L 15.914062 -8.675781 L 27.566406 -8.675781 C 28.152344 -8.675781 28.683594 -8.941406 28.949219 -9.417969 C 29.269531 -9.84375 29.324219 -10.429688 29.164062 -10.964844 L 27.246094 -15.699219 C 26.980469 -16.339844 26.394531 -16.765625 25.703125 -16.765625 L 19.105469 -16.765625 L 25.917969 -34.007812 C 25.96875 -34.113281 26.023438 -34.167969 26.023438 -34.167969 L 26.238281 -34.167969 C 26.238281 -34.167969 26.238281 -34.167969 26.289062 -34.058594 L 39.488281 -1.117188 C 39.753906 -0.371094 40.285156 0.0546875 41.03125 0.0546875 L 46.726562 0.0546875 C 47.578125 0.0546875 47.789062 -0.480469 47.898438 -0.746094 C 48.003906 -1.0625 47.949219 -1.542969 47.738281 -2.023438 Z M 32.78125 -38.902344 "/>
      </g>
    </g>
  </g>
  <g fill="#ffffff" fill-opacity="1" transform="matrix(0.7382180094718933, 0, 0, 0.7522979378700256, 35.585243225097656, 56.251289367675774)" style="">
    <g transform="translate(222.496794, 190.749216)">
      <g>
        <path d="M 36.773438 -43.851562 L 17.402344 -43.851562 C 15.0625 -43.851562 13.039062 -43.53125 11.390625 -42.945312 C 9.6875 -42.308594 8.300781 -41.296875 7.289062 -39.96875 C 6.226562 -38.636719 5.429688 -36.878906 4.949219 -34.75 C 4.46875 -32.675781 4.257812 -30.121094 4.257812 -27.195312 L 4.257812 -16.65625 C 4.257812 -13.675781 4.46875 -11.121094 4.949219 -8.992188 C 5.429688 -6.917969 6.226562 -5.164062 7.289062 -3.777344 C 8.355469 -2.449219 9.738281 -1.4375 11.390625 -0.851562 C 13.039062 -0.265625 15.0625 0.0546875 17.402344 0.0546875 L 36.773438 0.0546875 C 37.199219 0.0546875 38.265625 -0.160156 38.265625 -1.808594 L 38.265625 -6.015625 C 38.265625 -7.664062 37.199219 -7.875 36.773438 -7.875 L 17.667969 -7.875 C 16.550781 -7.875 15.59375 -7.984375 14.902344 -8.25 C 14.210938 -8.460938 13.730469 -8.835938 13.304688 -9.417969 C 12.878906 -9.953125 12.613281 -10.75 12.398438 -11.761719 C 12.238281 -12.824219 12.132812 -14.15625 12.132812 -15.753906 L 12.132812 -28.152344 C 12.132812 -29.75 12.238281 -31.078125 12.398438 -32.089844 C 12.613281 -33.101562 12.878906 -33.847656 13.304688 -34.433594 C 13.730469 -35.019531 14.210938 -35.390625 14.902344 -35.601562 C 15.59375 -35.871094 16.550781 -35.976562 17.667969 -35.976562 L 36.773438 -35.976562 C 37.199219 -35.976562 38.265625 -36.1875 38.265625 -37.890625 L 38.265625 -41.988281 C 38.265625 -43.640625 37.199219 -43.851562 36.773438 -43.851562 Z M 36.773438 -43.851562 "/>
      </g>
    </g>
  </g>
  <g fill="#ffffff" fill-opacity="1" transform="matrix(0.7382180094718933, 0, 0, 0.7522979378700256, 35.585243225097656, 56.251289367675774)" style="">
    <g transform="translate(266.874565, 190.749216)">
      <g>
        <path d="M 32.78125 -38.902344 C 32.675781 -39.167969 32.570312 -39.488281 32.464844 -39.699219 C 31.613281 -42.46875 29.058594 -44.4375 26.128906 -44.4375 C 24.800781 -44.4375 23.523438 -44.066406 22.457031 -43.320312 C 22.140625 -43.160156 21.871094 -42.945312 21.660156 -42.789062 C 20.863281 -42.097656 20.0625 -40.820312 19.316406 -38.902344 L 4.46875 -2.023438 C 4.3125 -1.542969 4.257812 -1.0625 4.363281 -0.746094 C 4.417969 -0.425781 4.683594 0.0546875 5.535156 0.0546875 L 11.390625 0.0546875 C 12.082031 0.0546875 12.613281 -0.371094 12.878906 -1.0625 L 15.914062 -8.675781 L 27.566406 -8.675781 C 28.152344 -8.675781 28.683594 -8.941406 28.949219 -9.417969 C 29.269531 -9.84375 29.324219 -10.429688 29.164062 -10.964844 L 27.246094 -15.699219 C 26.980469 -16.339844 26.394531 -16.765625 25.703125 -16.765625 L 19.105469 -16.765625 L 25.917969 -34.007812 C 25.96875 -34.113281 26.023438 -34.167969 26.023438 -34.167969 L 26.238281 -34.167969 C 26.238281 -34.167969 26.238281 -34.167969 26.289062 -34.058594 L 39.488281 -1.117188 C 39.753906 -0.371094 40.285156 0.0546875 41.03125 0.0546875 L 46.726562 0.0546875 C 47.578125 0.0546875 47.789062 -0.480469 47.898438 -0.746094 C 48.003906 -1.0625 47.949219 -1.542969 47.738281 -2.023438 Z M 32.78125 -38.902344 "/>
      </g>
    </g>
  </g>
  <g fill="#ffffff" fill-opacity="1" transform="matrix(0.7382180094718933, 0, 0, 0.7522979378700256, 35.585243225097656, 56.251289367675774)" style="">
    <g transform="translate(320.989936, 190.749216)">
      <g>
        <path d="M 40.605469 -33.953125 C 40.074219 -36.1875 39.167969 -38.050781 38.050781 -39.542969 C 36.878906 -40.976562 35.335938 -42.097656 33.527344 -42.789062 C 31.71875 -43.480469 29.589844 -43.851562 27.089844 -43.851562 L 8.515625 -43.851562 L 8.515625 -43.796875 C 6.972656 -43.691406 5.640625 -42.839844 4.84375 -41.5625 C 4.628906 -41.136719 4.417969 -40.660156 4.3125 -40.234375 L 4.257812 -3.886719 C 4.363281 -3.300781 4.578125 -2.714844 4.84375 -2.234375 C 5.695312 -0.796875 7.238281 0.0546875 8.886719 0.0546875 L 27.089844 0.0546875 C 29.589844 0.0546875 31.769531 -0.320312 33.527344 -1.011719 C 35.335938 -1.703125 36.878906 -2.820312 38.050781 -4.3125 C 39.167969 -5.746094 40.074219 -7.609375 40.605469 -9.84375 C 41.136719 -12.082031 41.402344 -14.742188 41.402344 -17.722656 L 41.402344 -26.078125 C 41.402344 -29.058594 41.136719 -31.71875 40.605469 -33.953125 Z M 12.082031 -8.140625 L 12.082031 -35.65625 C 12.082031 -35.871094 12.132812 -35.976562 12.1875 -35.976562 L 26.929688 -35.976562 C 28.152344 -35.976562 29.21875 -35.816406 30.070312 -35.496094 C 30.917969 -35.175781 31.558594 -34.75 32.039062 -34.058594 C 32.570312 -33.367188 32.941406 -32.464844 33.15625 -31.34375 C 33.367188 -30.121094 33.527344 -28.632812 33.527344 -26.875 L 33.527344 -16.921875 C 33.527344 -15.167969 33.367188 -13.675781 33.15625 -12.507812 C 32.941406 -11.335938 32.570312 -10.429688 32.039062 -9.738281 C 31.558594 -9.101562 30.917969 -8.621094 30.070312 -8.300781 C 29.21875 -7.984375 28.152344 -7.875 26.929688 -7.875 L 12.132812 -7.875 C 12.132812 -7.875 12.082031 -7.929688 12.082031 -8.140625 Z M 12.082031 -8.140625 "/>
      </g>
    </g>
  </g>
  <g fill="#ffffff" fill-opacity="1" transform="matrix(0.7382180094718933, 0, 0, 0.7522979378700256, 35.585243225097656, 56.251289367675774)" style="">
    <g transform="translate(368.50715, 190.749216)">
      <g>
        <path d="M 36.242188 -9.527344 L 17.507812 -9.527344 C 16.390625 -9.527344 15.488281 -9.6875 14.742188 -9.898438 C 14.050781 -10.164062 13.570312 -10.539062 13.144531 -11.070312 C 12.71875 -11.65625 12.398438 -12.453125 12.238281 -13.464844 C 12.1875 -13.730469 12.1875 -14.101562 12.132812 -14.367188 C 12.132812 -14.367188 12.1875 -18.199219 12.238281 -18.199219 L 36.027344 -18.199219 C 36.453125 -18.199219 37.519531 -18.414062 37.519531 -20.0625 L 37.519531 -24.265625 C 37.519531 -25.917969 36.453125 -26.078125 36.027344 -26.078125 L 8.566406 -26.023438 C 7.023438 -25.917969 5.695312 -25.117188 4.949219 -23.789062 C 4.683594 -23.363281 4.46875 -22.9375 4.363281 -22.457031 L 4.257812 -15.753906 L 4.257812 -15.488281 C 4.3125 -12.984375 4.578125 -10.855469 4.949219 -9.101562 C 5.429688 -6.972656 6.226562 -5.214844 7.238281 -3.886719 C 8.300781 -2.5 9.6875 -1.542969 11.390625 -0.957031 C 13.039062 -0.320312 15.007812 -0.0546875 17.347656 -0.0546875 L 36.242188 -0.0546875 C 36.71875 -0.0546875 37.785156 -0.210938 37.785156 -1.863281 L 37.785156 -7.714844 C 37.785156 -9.367188 36.71875 -9.527344 36.242188 -9.527344 Z M 36.292969 -43.957031 L 5.695312 -43.957031 C 5.269531 -43.957031 4.257812 -43.746094 4.257812 -42.042969 L 4.257812 -37.890625 C 4.257812 -36.242188 5.269531 -36.082031 5.695312 -36.082031 L 36.292969 -36.027344 C 36.71875 -36.027344 37.785156 -36.242188 37.785156 -37.890625 L 37.785156 -42.097656 C 37.785156 -43.746094 36.71875 -43.957031 36.292969 -43.957031 Z M 36.292969 -43.957031 "/>
      </g>
    </g>
  </g>
  <g fill="#ffffff" fill-opacity="1" transform="matrix(0.7382180094718933, 0, 0, 0.7522979378700256, 35.585243225097656, 56.251289367675774)" style="">
    <g transform="translate(412.406023, 190.749216)">
      <g>
        <path d="M 48.695312 -43.851562 L 43.90625 -43.851562 C 43.160156 -43.851562 42.574219 -43.796875 42.042969 -43.640625 C 41.511719 -43.480469 41.03125 -43.214844 40.605469 -42.839844 C 40.234375 -42.414062 39.859375 -41.9375 39.542969 -41.296875 C 39.222656 -40.660156 38.957031 -39.859375 38.636719 -38.847656 L 29.21875 -15.328125 C 29.164062 -15.113281 29.109375 -15.113281 29.058594 -15.113281 L 28.523438 -15.113281 C 28.523438 -15.113281 28.417969 -15.113281 28.367188 -15.328125 L 19 -38.847656 C 18.679688 -39.859375 18.359375 -40.660156 18.09375 -41.296875 C 17.773438 -41.9375 17.402344 -42.414062 17.03125 -42.839844 C 16.605469 -43.214844 16.070312 -43.480469 15.539062 -43.640625 C 15.007812 -43.796875 14.367188 -43.851562 13.675781 -43.851562 L 8.78125 -43.851562 C 6.972656 -43.851562 5.746094 -43.265625 5.109375 -42.148438 C 4.523438 -41.136719 4.257812 -39.433594 4.257812 -36.988281 L 4.257812 -1.808594 C 4.257812 -0.160156 5.320312 0.0546875 5.800781 0.0546875 L 10.378906 0.0546875 C 10.855469 0.0546875 11.867188 -0.160156 11.867188 -1.808594 L 11.867188 -33.792969 C 11.867188 -33.847656 11.867188 -33.898438 11.867188 -33.898438 L 12.132812 -33.898438 C 12.1875 -33.898438 12.238281 -33.898438 12.292969 -33.742188 L 21.394531 -11.230469 C 21.765625 -10.113281 22.140625 -9.152344 22.511719 -8.355469 C 22.9375 -7.558594 23.363281 -6.917969 23.789062 -6.386719 C 24.320312 -5.855469 24.851562 -5.429688 25.492188 -5.214844 C 26.128906 -5.003906 26.820312 -4.894531 27.621094 -4.894531 L 29.800781 -4.894531 C 30.601562 -4.894531 31.34375 -5.003906 31.929688 -5.214844 C 32.570312 -5.429688 33.15625 -5.855469 33.632812 -6.386719 C 34.058594 -6.917969 34.539062 -7.558594 34.910156 -8.355469 C 35.285156 -9.152344 35.65625 -10.113281 36.027344 -11.230469 L 45.183594 -33.792969 C 45.183594 -33.898438 45.234375 -33.898438 45.289062 -33.898438 L 45.554688 -33.898438 C 45.554688 -33.898438 45.554688 -33.847656 45.554688 -33.792969 L 45.554688 -1.808594 C 45.554688 -0.160156 46.621094 0.0546875 47.046875 0.0546875 L 51.621094 0.0546875 C 52.101562 0.0546875 53.164062 -0.160156 53.164062 -1.808594 L 53.164062 -36.988281 C 53.164062 -39.433594 52.898438 -41.136719 52.3125 -42.148438 C 51.675781 -43.265625 50.449219 -43.851562 48.695312 -43.851562 Z M 48.695312 -43.851562 "/>
      </g>
    </g>
  </g>
  <g fill="#ffffff" fill-opacity="1" transform="matrix(0.7382180094718933, 0, 0, 0.7522979378700256, 35.585243225097656, 56.251289367675774)" style="">
    <g transform="translate(471.682866, 190.749216)">
      <g>
        <path d="M 43.640625 -43.851562 L 37.730469 -43.851562 C 37.253906 -43.851562 36.613281 -43.691406 36.1875 -42.894531 L 24.480469 -21.554688 L 12.878906 -42.839844 C 12.453125 -43.691406 11.816406 -43.851562 11.335938 -43.851562 L 5.269531 -43.851562 C 4.789062 -43.851562 4.417969 -43.585938 4.3125 -43.105469 C 4.203125 -42.734375 4.257812 -42.308594 4.46875 -41.9375 L 20.4375 -13.464844 L 20.4375 -1.808594 C 20.4375 -0.160156 21.5 0 21.925781 0 L 26.820312 0 C 27.246094 0 28.3125 -0.160156 28.3125 -1.808594 L 28.3125 -13.464844 L 44.4375 -41.9375 C 44.648438 -42.308594 44.703125 -42.734375 44.597656 -43.160156 C 44.4375 -43.585938 44.066406 -43.851562 43.640625 -43.851562 Z M 43.640625 -43.851562 "/>
      </g>
    </g>
  </g>
  <g clip-path="url(#id2)" transform="matrix(0.7382180094718933, 0, 0, 0.7522979378700256, 35.585243225097656, 56.251289367675774)" style="">
    <g clip-path="url(#id3)">
      <g clip-path="url(#id4)">
        <path fill="#ffffff" d="M 122.894531 83.1875 C 115.628906 69.792969 105.828125 57.582031 101.144531 42.902344 C 99.976562 39.234375 99.140625 35.46875 98.8125 31.625 C 98.574219 28.777344 99.5625 22.289062 95.171875 25.765625 C 89.460938 30.289062 87.625 37.636719 89.070312 44.636719 C 90.640625 52.234375 95.523438 58.652344 99.804688 64.929688 C 104.40625 71.675781 108.519531 78.554688 111.703125 86.097656 C 114.925781 93.730469 117.371094 101.714844 118.945312 109.851562 C 120.449219 117.613281 121.355469 124.011719 114.375 129.21875 C 108.691406 133.457031 101.605469 135.320312 94.941406 137.382812 C 89.644531 139.023438 84.394531 140.75 79.253906 142.769531 C 80.707031 145.195312 82.195312 147.597656 83.691406 149.972656 C 84.804688 151.738281 85.953125 153.484375 87.117188 155.226562 C 101.207031 150.828125 117.488281 146.445312 126.234375 133.460938 C 136.585938 118.089844 131.023438 98.167969 122.894531 83.1875 Z M 77.269531 158.410156 C 77.273438 158.417969 77.277344 158.425781 77.285156 158.433594 C 65.503906 162.527344 54.09375 167.734375 45.214844 176.804688 C 42.546875 179.535156 40.171875 182.5625 38.234375 185.855469 C 37.113281 187.769531 35.980469 193.097656 33.183594 192.941406 C 29.847656 192.75 29.460938 187.9375 29.683594 185.511719 C 30.027344 181.761719 31.738281 178.1875 33.714844 175.035156 C 41.90625 161.960938 57.136719 153.0625 70.675781 146.503906 L 69.355469 147.15625 C 71.191406 149.976562 73.117188 152.699219 75.015625 155.316406 C 75.753906 156.335938 76.507812 157.367188 77.269531 158.410156 " fill-opacity="1" fill-rule="nonzero"/>
      </g>
    </g>
  </g>
  <g clip-path="url(#id5)" transform="matrix(0.7382180094718933, 0, 0, 0.7522979378700256, 35.585243225097656, 56.251289367675774)" style="">
    <g clip-path="url(#id6)">
      <g clip-path="url(#id7)">
        <g clip-path="url(#id8)">
          <g clip-path="url(#id9)">
            <path fill="#ffe160" d="M 46.585938 171.566406 C 45.902344 171.308594 45.300781 171.199219 44.753906 171.289062 C 44.828125 170.972656 44.429688 170.648438 44.125 170.921875 C 42.421875 172.433594 40.664062 174.863281 42.796875 176.851562 C 44.355469 178.300781 46.953125 179.109375 48.859375 180.039062 C 51.101562 181.136719 53.351562 182.226562 55.609375 183.289062 C 58.964844 184.867188 62.363281 186.390625 65.800781 187.84375 C 66.789062 185.679688 67.746094 183.5 68.675781 181.308594 C 63.300781 179.71875 58.226562 177.480469 53.238281 174.933594 C 51.054688 173.824219 48.878906 172.433594 46.585938 171.566406 Z M 64.789062 161.738281 C 62.605469 160.515625 59.96875 158.671875 57.402344 158.425781 C 54.257812 158.125 52.277344 161.433594 54.152344 163.34375 C 53.945312 163.480469 53.898438 163.84375 54.144531 164.019531 C 59.625 167.90625 65.894531 170.382812 72.011719 173.078125 C 72.8125 171.003906 73.589844 168.921875 74.339844 166.828125 C 73.925781 166.625 73.507812 166.429688 73.09375 166.222656 C 70.269531 164.828125 67.535156 163.28125 64.789062 161.738281 Z M 117.023438 60.277344 C 113.152344 57.917969 109.296875 55.484375 105.359375 53.222656 C 107.132812 56.839844 109.132812 60.34375 111.21875 63.808594 C 113.203125 64.921875 115.179688 66.058594 117.140625 67.21875 C 117.867188 65.378906 118.675781 63.574219 119.519531 61.78125 C 118.6875 61.285156 117.851562 60.78125 117.023438 60.277344 Z M 102.023438 45.460938 C 108.65625 48.777344 115.410156 51.90625 122.226562 54.769531 C 123.253906 52.777344 124.253906 50.773438 125.171875 48.738281 C 123.046875 47.792969 120.925781 46.839844 118.792969 45.914062 C 114.222656 43.925781 109.628906 41.996094 105.089844 39.921875 C 103.242188 39.078125 101.4375 38.113281 99.628906 37.152344 C 100.03125 39.09375 100.542969 41.011719 101.144531 42.902344 C 101.417969 43.765625 101.714844 44.617188 102.023438 45.460938 Z M 94.941406 137.382812 C 96.753906 136.820312 98.601562 136.273438 100.441406 135.6875 C 96.847656 134.332031 93.257812 133.09375 89.808594 131.359375 C 88.050781 130.472656 86.261719 129.644531 84.453125 128.847656 C 83.417969 130.78125 82.34375 132.6875 81.15625 134.511719 C 84.382812 135.867188 87.574219 137.292969 90.78125 138.695312 C 92.164062 138.25 93.550781 137.8125 94.941406 137.382812 Z M 104.867188 121.882812 C 100.386719 120.042969 95.890625 118.21875 91.414062 116.351562 C 90.25 118.226562 89.121094 120.128906 88.054688 122.066406 C 89.828125 122.894531 91.601562 123.71875 93.390625 124.527344 C 97.742188 126.5 102.09375 128.492188 106.511719 130.316406 C 107.792969 130.847656 109.109375 131.289062 110.4375 131.691406 C 111.804688 130.960938 113.125 130.148438 114.375 129.21875 C 115.40625 128.445312 116.261719 127.652344 116.972656 126.828125 C 115.589844 126 113.914062 125.503906 112.457031 124.925781 C 109.921875 123.921875 107.386719 122.921875 104.867188 121.882812 Z M 116.964844 111.335938 C 112.136719 109.390625 107.289062 107.488281 102.425781 105.632812 C 101.34375 105.222656 100.257812 104.820312 99.175781 104.417969 C 97.921875 106.332031 96.652344 108.242188 95.390625 110.15625 C 100.207031 112.117188 104.972656 114.195312 109.765625 116.230469 C 111.96875 117.167969 114.1875 118.078125 116.421875 118.945312 C 117.53125 119.375 118.6875 119.886719 119.859375 120.363281 C 120.191406 117.867188 119.898438 115.175781 119.394531 112.289062 C 118.582031 111.96875 117.765625 111.65625 116.964844 111.335938 Z M 103.523438 97.535156 C 105.953125 98.269531 108.375 99.015625 110.769531 99.855469 C 112.984375 100.636719 115.117188 101.667969 117.285156 102.578125 C 116.59375 99.914062 115.816406 97.269531 114.9375 94.660156 C 112.09375 93.917969 109.21875 93.289062 106.394531 92.492188 C 105.480469 94.199219 104.523438 95.878906 103.523438 97.535156 Z M 87.125 155.222656 C 87.121094 155.222656 87.121094 155.226562 87.117188 155.226562 C 85.953125 153.484375 84.804688 151.738281 83.691406 149.972656 C 83.496094 149.664062 83.304688 149.351562 83.109375 149.042969 C 79.792969 143.828125 76.621094 138.523438 73.792969 133.03125 C 70.042969 125.757812 66.457031 117.222656 70.527344 109.277344 C 75.960938 98.667969 89.894531 95.429688 100.234375 91.386719 C 104.148438 89.855469 108.078125 88.347656 112 86.832031 C 111.898438 86.585938 111.804688 86.339844 111.703125 86.097656 C 110.273438 82.710938 108.65625 79.460938 106.890625 76.296875 C 106.78125 76.328125 106.671875 76.355469 106.5625 76.386719 C 97.785156 78.855469 88.871094 81.601562 80.746094 85.804688 C 66.527344 93.15625 56.417969 105.957031 58.894531 122.664062 C 60.238281 131.6875 64.359375 139.640625 69.3125 147.167969 C 69.769531 146.945312 70.222656 146.722656 70.675781 146.503906 L 69.355469 147.15625 C 71.191406 149.976562 73.117188 152.699219 75.015625 155.316406 C 75.753906 156.335938 76.507812 157.367188 77.269531 158.410156 C 77.273438 158.417969 77.277344 158.425781 77.285156 158.433594 C 77.28125 158.433594 77.277344 158.433594 77.277344 158.4375 C 79.285156 161.191406 81.269531 163.933594 83.125 166.699219 C 87.695312 173.511719 91.902344 180.859375 93.710938 188.941406 C 94.601562 192.898438 94.863281 197 94.320312 201.03125 C 94.195312 201.945312 92.722656 205.824219 94.636719 205.832031 C 95.890625 205.835938 97.621094 202.546875 98.152344 201.648438 C 106.75 186.988281 96.863281 169.855469 88.707031 157.605469 C 88.175781 156.816406 87.652344 156.019531 87.125 155.222656 Z M 162.269531 49.183594 C 158.425781 65.390625 141.691406 74.851562 127.535156 80.679688 C 125.898438 81.351562 124.257812 82.015625 122.613281 82.671875 C 120.9375 79.613281 119.132812 76.617188 117.292969 73.636719 C 122.871094 72.214844 128.40625 70.632812 133.566406 68.058594 C 140.621094 64.535156 146.710938 59.179688 151.222656 52.714844 C 153.480469 49.480469 155.34375 45.972656 156.753906 42.289062 C 157.324219 40.796875 157.503906 39.109375 158.683594 38.105469 C 158.71875 38.078125 160.109375 37.148438 160.34375 37.078125 C 161.023438 36.863281 161.832031 36.949219 162.070312 37.8125 C 163.101562 41.523438 163.15625 45.4375 162.269531 49.183594 " fill-opacity="1" fill-rule="nonzero"/>
          </g>
        </g>
      </g>
    </g>
  </g>
  <g clip-path="url(#id10)" transform="matrix(0.7382180094718933, 0, 0, 0.7522979378700256, 35.585243225097656, 56.251289367675774)" style="">
    <g clip-path="url(#id11)">
      <g clip-path="url(#id12)">
        <path fill="#004aad" d="M 35.277344 178.265625 C 33.054688 179.875 32.144531 183.097656 31.964844 185.734375 C 31.871094 187.109375 31.746094 190.964844 34.066406 190.492188 C 34.324219 190.4375 34.417969 190.089844 34.234375 189.90625 C 32.695312 188.382812 33.164062 185.804688 33.644531 183.875 C 34.105469 182.011719 35.140625 180.449219 35.777344 178.667969 C 35.871094 178.402344 35.527344 178.085938 35.277344 178.265625 Z M 89.152344 169.207031 C 88.902344 168.871094 88.355469 169.285156 88.566406 169.644531 C 91.109375 173.957031 93.191406 178.507812 94.414062 183.378906 C 95.023438 185.8125 95.464844 188.300781 95.679688 190.800781 C 95.878906 193.101562 95.777344 195.410156 96.214844 197.683594 C 96.269531 197.960938 96.671875 197.945312 96.75 197.695312 C 98.210938 193.121094 96.945312 187.246094 95.671875 182.746094 C 94.296875 177.882812 92.167969 173.269531 89.152344 169.207031 Z M 122.742188 111.046875 C 122.800781 114.375 123.253906 117.625 122.804688 120.953125 C 122.308594 124.601562 120.964844 128.042969 118.394531 130.726562 C 115.945312 133.285156 112.796875 135.199219 109.683594 136.835938 C 106.457031 138.53125 102.957031 139.507812 99.695312 141.085938 C 99.4375 141.210938 99.550781 141.628906 99.828125 141.628906 C 103.597656 141.605469 107.523438 139.945312 110.847656 138.289062 C 114.296875 136.566406 117.777344 134.34375 120.328125 131.410156 C 124.980469 126.070312 125.832031 117.539062 123.554688 110.957031 C 123.414062 110.542969 122.734375 110.550781 122.742188 111.046875 Z M 158.546875 41.359375 C 157.65625 43.582031 156.925781 45.839844 155.832031 47.972656 C 154.890625 49.808594 153.507812 51.453125 152.792969 53.390625 C 152.675781 53.703125 153.082031 54.054688 153.371094 53.859375 C 155.28125 52.550781 156.410156 50.253906 157.375 48.210938 C 158.375 46.09375 159.164062 43.835938 159.355469 41.488281 C 159.394531 40.996094 158.710938 40.953125 158.546875 41.359375 Z M 93.816406 49.207031 C 91.390625 46.824219 91.113281 42.269531 91.386719 39.074219 C 91.707031 35.292969 93.019531 31.898438 95.285156 28.871094 C 95.636719 28.402344 96.390625 28.835938 96.074219 29.355469 C 94.261719 32.347656 93.214844 35.902344 93.097656 39.394531 C 93.035156 41.195312 93.195312 42.980469 93.582031 44.742188 C 93.886719 46.144531 94.394531 47.503906 94.507812 48.9375 C 94.535156 49.308594 94.039062 49.429688 93.816406 49.207031 " fill-opacity="1" fill-rule="nonzero"/>
      </g>
    </g>
  </g>
  <g clip-path="url(#id13)" transform="matrix(0.7382180094718933, 0, 0, 0.7522979378700256, 35.585243225097656, 56.251289367675774)" style="">
    <g clip-path="url(#id14)">
      <g clip-path="url(#id15)">
        <path fill="#000000" d="M 90.3125 189.664062 C 87.84375 188.550781 85.363281 187.460938 82.875 186.394531 C 78.332031 184.445312 73.855469 182.808594 69.109375 181.441406 C 68.960938 181.398438 68.820312 181.351562 68.675781 181.308594 C 67.746094 183.5 66.789062 185.679688 65.800781 187.84375 C 71.527344 190.265625 77.351562 192.480469 83.226562 194.390625 C 85.457031 195.113281 87.679688 195.851562 89.914062 196.558594 C 91.285156 196.992188 93.039062 197.824219 94.582031 197.710938 C 94.644531 195.589844 94.492188 193.460938 94.164062 191.363281 C 92.917969 190.714844 91.546875 190.21875 90.3125 189.664062 Z M 74.339844 166.828125 C 73.589844 168.921875 72.8125 171.003906 72.011719 173.078125 C 73.433594 173.707031 74.847656 174.34375 76.242188 175.019531 C 80.242188 176.949219 84.261719 178.84375 88.246094 180.808594 C 89.625 181.488281 90.773438 182.460938 92.027344 183.277344 C 90.636719 179.476562 88.78125 175.839844 86.707031 172.34375 C 82.542969 170.601562 78.402344 168.789062 74.339844 166.828125 Z M 132.695312 68.375 C 130.707031 67.488281 128.6875 66.753906 126.726562 65.78125 C 124.269531 64.5625 121.882812 63.195312 119.519531 61.78125 C 118.675781 63.574219 117.867188 65.378906 117.140625 67.21875 C 119.398438 68.554688 121.648438 69.914062 123.882812 71.300781 C 126.039062 72.640625 129.386719 75.796875 132.128906 74.53125 C 133.464844 73.914062 135.011719 71.597656 134.503906 70 C 134.21875 69.105469 133.457031 68.71875 132.695312 68.375 Z M 147.558594 58.519531 C 147.503906 57.921875 147.035156 57.609375 146.578125 57.601562 C 141.730469 56.089844 137.050781 53.804688 132.363281 51.859375 C 129.945312 50.859375 127.554688 49.800781 125.171875 48.738281 C 124.253906 50.773438 123.253906 52.777344 122.226562 54.769531 C 123.050781 55.113281 123.878906 55.464844 124.703125 55.800781 C 127.503906 56.949219 130.367188 57.941406 133.152344 59.121094 C 135.328125 60.042969 137.398438 61.191406 139.570312 62.109375 C 142.617188 63.398438 147.976562 63.078125 147.558594 58.519531 Z M 81.15625 134.511719 C 82.34375 132.6875 83.417969 130.78125 84.453125 128.847656 C 78.292969 126.128906 71.902344 123.832031 65.652344 121.386719 C 65.304688 120.785156 64.316406 120.613281 63.835938 121.328125 C 60.042969 126.925781 71.316406 130.710938 74.785156 131.988281 C 76.933594 132.777344 79.050781 133.632812 81.15625 134.511719 Z M 66.304688 112.726562 C 66.574219 112.765625 66.792969 112.679688 66.953125 112.523438 C 71.304688 113.789062 75.363281 116.0625 79.4375 117.996094 C 82.308594 119.355469 85.175781 120.71875 88.054688 122.066406 C 89.121094 120.128906 90.25 118.226562 91.414062 116.351562 C 86.414062 114.265625 81.429688 112.132812 76.519531 109.871094 C 74.027344 108.726562 71.621094 107.40625 69.136719 106.246094 C 67.878906 105.664062 66.410156 105.148438 65.132812 105.953125 C 62.675781 107.488281 63.382812 112.273438 66.304688 112.726562 Z M 78.671875 96.339844 C 76.699219 95.589844 74.769531 95.203125 72.867188 96.269531 C 72.417969 96.519531 72.421875 96.988281 72.667969 97.292969 C 72.144531 98.101562 71.960938 99.125 72.335938 100.191406 C 73.5 103.53125 78.402344 104.054688 81.246094 104.953125 C 86.046875 106.476562 90.742188 108.261719 95.390625 110.15625 C 96.652344 108.242188 97.921875 106.332031 99.175781 104.417969 C 94.859375 102.816406 90.523438 101.261719 86.25 99.554688 C 83.703125 98.539062 81.230469 97.316406 78.671875 96.339844 Z M 105.757812 92.316406 C 105.96875 92.378906 106.179688 92.433594 106.394531 92.492188 C 105.480469 94.199219 104.523438 95.878906 103.523438 97.535156 C 101.644531 96.964844 99.757812 96.402344 97.882812 95.8125 C 93.714844 94.496094 89.5625 92.988281 85.820312 90.6875 C 84.847656 90.089844 83.703125 89.558594 83.65625 88.257812 C 83.613281 87.0625 84.503906 85.992188 85.363281 85.289062 C 85.621094 85.082031 85.929688 85.21875 86.039062 85.441406 C 88.167969 85.117188 90.984375 87.058594 92.742188 87.761719 C 97.007812 89.472656 101.34375 91.03125 105.757812 92.316406 " fill-opacity="1" fill-rule="nonzero"/>
      </g>
    </g>
  </g>
  <g clip-path="url(#id16)" transform="matrix(0.7382180094718933, 0, 0, 0.7522979378700256, 35.585243225097656, 56.251289367675774)" style="">
    <g clip-path="url(#id17)">
      <g clip-path="url(#id18)">
        <path fill="#008037" d="M 68.164062 180.570312 C 67.3125 181.644531 66.871094 183.214844 66.359375 184.46875 C 65.765625 185.910156 65.097656 187.332031 65.179688 188.917969 C 65.191406 189.109375 65.410156 189.222656 65.5625 189.085938 C 66.757812 187.988281 67.296875 186.40625 67.90625 184.933594 C 68.355469 183.832031 69.53125 181.925781 69.214844 180.734375 C 69.078125 180.214844 68.460938 180.199219 68.164062 180.570312 Z M 74.121094 166.566406 C 72.988281 168.582031 72.175781 170.601562 71.644531 172.851562 C 71.570312 173.171875 71.960938 173.335938 72.152344 173.082031 C 73.539062 171.234375 74.617188 169.320312 75.546875 167.207031 C 75.910156 166.386719 74.554688 165.800781 74.121094 166.566406 Z M 81.058594 136.121094 C 83.265625 134.007812 84.328125 131.023438 85.214844 128.152344 C 85.441406 127.429688 84.351562 127.113281 84.097656 127.816406 C 83.089844 130.570312 81.546875 133.085938 80.648438 135.867188 C 80.570312 136.109375 80.882812 136.292969 81.058594 136.121094 Z M 91.230469 116.144531 C 90.335938 117.0625 89.769531 118.304688 89.167969 119.429688 C 88.609375 120.480469 88.054688 121.511719 87.933594 122.710938 C 87.894531 123.0625 88.34375 123.191406 88.578125 122.996094 C 89.523438 122.203125 90.054688 121.109375 90.617188 120.03125 C 91.167969 118.964844 91.851562 117.855469 92.09375 116.671875 C 92.191406 116.195312 91.625 115.742188 91.230469 116.144531 Z M 98.382812 104.710938 C 97.277344 107.058594 95.949219 109.289062 95.195312 111.78125 C 95.128906 111.992188 95.421875 112.199219 95.578125 112.015625 C 97.324219 110.011719 98.304688 107.566406 99.285156 105.121094 C 99.496094 104.597656 98.625 104.199219 98.382812 104.710938 Z M 106.339844 92.191406 C 105.257812 94.007812 103.96875 95.777344 103.488281 97.867188 C 103.425781 98.144531 103.753906 98.378906 103.980469 98.164062 C 105.523438 96.695312 106.386719 94.691406 107.390625 92.835938 C 107.765625 92.144531 106.75 91.503906 106.339844 92.191406 Z M 118.980469 65.230469 C 119.398438 64.046875 119.941406 62.808594 119.777344 61.539062 C 119.75 61.355469 119.503906 61.320312 119.386719 61.425781 C 118.484375 62.226562 118.097656 63.464844 117.664062 64.558594 C 117.144531 65.863281 116.722656 67.023438 116.679688 68.429688 C 116.671875 68.683594 117.039062 68.890625 117.21875 68.667969 C 118.085938 67.601562 118.519531 66.527344 118.980469 65.230469 Z M 122.410156 56.5 C 123.164062 55.542969 123.503906 54.378906 123.957031 53.265625 C 124.503906 51.921875 125.09375 50.589844 125.726562 49.289062 C 125.996094 48.734375 125.265625 48.265625 124.902344 48.78125 C 123.472656 50.824219 121.550781 53.679688 121.699219 56.289062 C 121.722656 56.683594 122.171875 56.796875 122.410156 56.5 Z M 41.035156 172.949219 C 40.382812 174.304688 40.460938 176.027344 41.449219 177.207031 C 42.273438 178.195312 44.492188 179.480469 45.703125 178.621094 C 45.851562 178.515625 45.949219 178.320312 45.839844 178.144531 C 45.410156 177.433594 44.742188 177.429688 44 177.164062 C 42.355469 176.574219 41.480469 174.9375 42.453125 173.332031 C 43.144531 172.1875 44.554688 171.683594 45.835938 171.734375 C 47.1875 171.785156 48.144531 172.558594 49.359375 172.960938 C 49.839844 173.117188 50.074219 172.535156 49.824219 172.199219 C 47.773438 169.429688 42.527344 169.84375 41.035156 172.949219 Z M 58.234375 159.433594 C 60.945312 160.003906 63.179688 161.917969 65.757812 162.785156 C 66.113281 162.90625 66.410156 162.421875 66.140625 162.15625 C 64.394531 160.433594 61.585938 159.261719 59.261719 158.503906 C 57.496094 157.925781 55.660156 157.933594 54.324219 159.425781 C 51.320312 162.777344 55.363281 166.710938 58.597656 167.617188 C 59.300781 167.8125 59.753906 166.835938 59.125 166.445312 C 58.136719 165.828125 57.058594 165.367188 56.117188 164.675781 C 55.015625 163.867188 54.492188 163.046875 54.726562 161.648438 C 55.015625 159.957031 56.488281 159.066406 58.234375 159.433594 Z M 145.34375 57.332031 C 144.574219 57.4375 144.746094 58.46875 145.3125 58.703125 C 146.109375 59.03125 147.007812 58.914062 147.351562 59.824219 C 147.785156 60.976562 147.128906 62.164062 146.007812 62.519531 C 145.160156 62.789062 144.210938 62.863281 143.328125 62.785156 C 142.441406 62.707031 141.785156 62.476562 140.910156 62.691406 C 140.761719 62.726562 140.679688 62.910156 140.757812 63.042969 C 142.152344 65.394531 147.445312 64.742188 148.640625 62.4375 C 149.980469 59.855469 148.339844 56.933594 145.34375 57.332031 Z M 131.972656 68.242188 C 131.371094 68.296875 131.222656 69.0625 131.808594 69.296875 C 132.410156 69.53125 133.007812 69.777344 133.601562 70.035156 C 135.121094 71.890625 135.039062 73.269531 133.355469 74.167969 C 132.128906 74.828125 130.585938 74.550781 129.34375 74.1875 C 127.507812 73.652344 126.113281 72.503906 124.488281 71.574219 C 124.210938 71.410156 123.839844 71.722656 124.019531 72.019531 C 125.867188 75.082031 131.402344 77.328125 134.570312 75.078125 C 137.730469 72.832031 135.757812 67.898438 131.972656 68.242188 Z M 92.609375 94.34375 C 91.128906 93.496094 89.625 92.605469 88.179688 91.691406 C 87.597656 91.320312 85.96875 90.542969 85.664062 89.882812 C 84.402344 87.15625 88.613281 87.40625 89.632812 87.585938 C 92.40625 88.078125 95.367188 90.730469 98.210938 89.933594 C 98.453125 89.867188 98.53125 89.511719 98.296875 89.378906 C 97.074219 88.6875 95.679688 88.417969 94.386719 87.867188 C 93.160156 87.347656 91.96875 86.730469 90.671875 86.390625 C 88.742188 85.890625 86.351562 85.792969 84.769531 87.230469 C 80.773438 90.867188 90.078125 94.140625 92.433594 94.738281 C 92.664062 94.796875 92.835938 94.46875 92.609375 94.34375 Z M 75.324219 103.46875 C 75.589844 103.523438 75.945312 103.230469 75.742188 102.949219 C 75.304688 102.355469 74.714844 101.980469 74.238281 101.429688 C 73.480469 100.554688 73.304688 100.085938 73.582031 98.960938 C 73.941406 97.5 74.914062 97.195312 76.429688 97.230469 C 78.851562 97.285156 81.136719 98.542969 83.523438 98.476562 C 83.78125 98.46875 84.015625 98.109375 83.773438 97.910156 C 82.09375 96.53125 79.511719 96.152344 77.410156 95.867188 C 75.835938 95.652344 74.0625 95.753906 72.847656 96.914062 C 70.539062 99.109375 72.578125 102.898438 75.324219 103.46875 Z M 64.835938 112.769531 C 66.011719 113.839844 68.085938 114.847656 69.671875 114.34375 C 69.949219 114.253906 70.160156 113.839844 69.882812 113.617188 C 68.074219 112.144531 64.710938 112.394531 64.234375 109.429688 C 63.867188 107.167969 65.984375 106.332031 67.808594 106.828125 C 69.089844 107.175781 70.128906 107.769531 71.480469 107.757812 C 71.804688 107.757812 71.910156 107.261719 71.574219 107.179688 C 69.679688 106.71875 67.753906 105.289062 65.730469 105.695312 C 64.289062 105.988281 63.316406 107.269531 63.152344 108.695312 C 62.96875 110.246094 63.703125 111.742188 64.835938 112.769531 Z M 66.574219 129.105469 C 68.027344 130.074219 70.597656 131.675781 72.371094 131.121094 C 72.601562 131.046875 72.769531 130.769531 72.625 130.542969 C 72.085938 129.707031 71.246094 129.457031 70.363281 129.070312 C 69.058594 128.503906 67.777344 127.914062 66.648438 127.035156 C 65.636719 126.246094 63.652344 124.480469 63.710938 123.035156 C 63.8125 120.394531 67.847656 122.5625 68.820312 122.871094 C 69.179688 122.984375 69.367188 122.496094 69.082031 122.292969 C 67.792969 121.367188 65.152344 119.976562 63.511719 120.644531 C 61.882812 121.308594 62.441406 123.300781 62.90625 124.542969 C 63.625 126.480469 64.867188 127.964844 66.574219 129.105469 Z M 74.796875 153.777344 C 73.066406 151.289062 71.410156 148.652344 69.308594 146.460938 C 68.957031 146.09375 68.453125 146.53125 68.632812 146.957031 C 69.929688 149.980469 71.945312 152.710938 73.8125 155.402344 C 75.359375 157.640625 76.8125 160.246094 78.988281 161.925781 C 79.292969 162.160156 79.792969 161.792969 79.664062 161.429688 C 78.679688 158.617188 76.480469 156.207031 74.796875 153.777344 Z M 83.269531 147.511719 C 81.457031 144.789062 79.742188 141.9375 77.558594 139.492188 C 77.308594 139.210938 76.925781 139.550781 77.0625 139.859375 C 78.484375 143.109375 80.589844 146.070312 82.535156 149.027344 C 84.121094 151.429688 85.585938 154.4375 87.878906 156.234375 C 88.117188 156.421875 88.46875 156.128906 88.390625 155.855469 C 87.496094 152.84375 84.996094 150.109375 83.269531 147.511719 Z M 121.941406 80.046875 C 120.699219 77.777344 119.410156 75.445312 117.765625 73.4375 C 117.453125 73.054688 116.882812 73.523438 117.09375 73.933594 C 118.316406 76.351562 119.847656 78.625 121.136719 81.011719 C 122.285156 83.136719 123.136719 85.542969 124.632812 87.441406 C 124.832031 87.691406 125.183594 87.425781 125.132812 87.164062 C 124.683594 84.644531 123.15625 82.265625 121.941406 80.046875 Z M 112.355469 85.4375 C 113.597656 87.894531 115.195312 90.664062 115.207031 93.484375 C 115.207031 93.828125 114.773438 93.875 114.605469 93.632812 C 112.820312 91.054688 111.800781 87.75 110.402344 84.933594 C 109.039062 82.195312 107.601562 79.496094 106.484375 76.648438 C 106.292969 76.15625 107.042969 75.945312 107.292969 76.328125 C 109.191406 79.222656 110.792969 82.347656 112.355469 85.4375 " fill-opacity="1" fill-rule="nonzero"/>
      </g>
    </g>
  </g>
</svg>