<?xml version="1.0" standalone="no"?>
<!DOCTYPE svg PUBLIC "-//W3C//DTD SVG 1.1//EN" "http://www.w3.org/Graphics/SVG/1.1/DTD/svg11.dtd">
<svg version="1.1" id="Layer_1" xmlns="http://www.w3.org/2000/svg" xmlns:xlink="http://www.w3.org/1999/xlink" x="0px" y="0px" viewBox="0 0 285.94 181.86" style="enable-background:new 0 0 285.94 181.86;" xml:space="preserve" width="285.94000244140625" height="181.86000061035156">
<style type="text/css">
	.st0{fill:#343433;}
	.st1{fill:#1E2756;}
	.st2{fill:#166D4D;}
	.st3{fill:#1C2753;}
</style>
<g>
	<g id="XMLID_1001_">
		<path id="XMLID_1059_" class="st0" d="M203.49,40.72c-6.6,0-13.21,0-19.81,0c-0.08-0.19-0.16-0.39-0.24-0.58    c18.82-10.52,37.64-21.04,57.04-31.88c0,21.64,0,42.81,0,64.41c-3.74-6.3-7.39-12.44-11.65-19.61c-1.75,2.14-3.04,4.08-4.68,5.68    c-20.48,19.93-43.92,35.12-71.44,43.37c-29.68,8.9-59.5,9.15-89.3,0.38c-1.1-0.32-2.17-0.76-3.28-1.27    c60.03,8.99,107.77-11.25,143.85-59.29C203.81,41.52,203.65,41.12,203.49,40.72z"/>
		<path id="XMLID_1058_" class="st1" d="M116.46,36.8c7.11-2.88,14.26-3.23,21.28,0.25c6.96,3.45,11.32,9.41,15.03,16.62    c0.72-4.45,1.18-8.37,2.01-12.22c3.25-15.06,10.16-27.72,24.09-35.54c7.61-4.27,15.84-6.25,24.79-5.87    c-30.65,13.77-46.35,37.63-48.82,70.95c-0.39-0.81-0.79-1.61-1.16-2.43c-4.18-9.25-9.53-17.64-17.67-23.98    C130.27,40.1,123.78,37.6,116.46,36.8z"/>
		<path id="XMLID_1023_" class="st1" d="M71.4,75.22c2.37-4.55,4.48-9.07,7-13.34c5.87-9.93,13.95-17.19,25.5-19.88    c6.1-1.42,12.14-1.26,18.1,0.85c-26.24,5.78-42.28,22.87-52.82,47.23c-1.17-8.15-3-15.3-6.98-21.72    c-3.96-6.38-9.38-11.13-16.47-14.33c5.31-1.19,12.88,1.03,17.64,4.99C68.41,63.21,70.31,69,71.4,75.22z"/>
		<path id="XMLID_1003_" class="st1" d="M142.7,29.92c-5.79-0.04-10.18-4.45-10.14-10.2c0.03-5.67,4.59-10.23,10.22-10.24    c5.72-0.01,10.4,4.73,10.31,10.44C153.01,25.56,148.44,29.96,142.7,29.92z"/>
		<path id="XMLID_1002_" class="st1" d="M63.76,45.22c0.03-4.78,3.74-8.4,8.57-8.36c4.77,0.04,8.51,3.85,8.43,8.57    c-0.08,4.66-4.09,8.58-8.66,8.47C67.33,53.79,63.74,50.05,63.76,45.22z"/>
	</g>
	<g id="XMLID_889_">
		<path id="XMLID_999_" class="st2" d="M24.61,131.19l-5.65,7.64c-2.62,3.66-4.63,5.48-6.04,5.48c-0.66,0-1.24-0.38-1.75-1.13    c-0.51-0.75-1.03-1.9-1.56-3.44c-0.53-1.54-0.91-2.71-1.12-3.5c-0.49-1.83-0.82-2.87-0.99-3.12l-0.87,4.41    c-0.27,1.43-0.55,2.74-0.83,3.93c-0.28,1.19-0.59,2.63-0.93,4.3c-0.33,1.67-0.54,2.94-0.62,3.79c-0.02,0.28-0.29,0.59-0.81,0.92    s-0.91,0.49-1.18,0.49c-0.54,0-1.05-0.25-1.52-0.76s-0.7-0.99-0.7-1.45c0-1.09,0.23-2.47,0.68-4.14    c1.87-6.86,2.93-11.18,3.2-12.96c0.27-1.78,0.4-3.25,0.4-4.43c0-0.61,0.27-1.08,0.8-1.41c0.53-0.33,1.23-0.49,2.09-0.49    c0.46,0,0.93,0.31,1.39,0.92c0.46,0.61,0.77,1.18,0.92,1.7l-0.02-0.03l2.36,6.61c0.94,2.64,1.57,4.31,1.88,5.03    c1.22-1.32,3.03-3.63,5.43-6.91c2.4-3.27,4.04-5.38,4.92-6.32c0.88-0.94,1.51-1.41,1.87-1.41c0.55,0,1.17,0.23,1.85,0.7    c0.68,0.46,1.02,0.86,1.02,1.19c0,0.25-0.22,1.95-0.66,5.11c-0.31,2.23-0.58,4.73-0.83,7.49c-0.25,2.76-0.37,4.39-0.37,4.89    c0,0.61,0.08,1.24,0.24,1.88c0.11,0.5,0.17,0.97,0.17,1.41c0,1.12-0.2,1.88-0.59,2.29c-0.39,0.41-0.99,0.61-1.81,0.61    c-1.48,0-2.22-1.11-2.22-3.35c0-2.11,0.19-4.68,0.58-7.72c0.39-3.04,0.74-5.37,1.05-7C24.5,131.83,24.57,131.42,24.61,131.19z"/>
		<path id="XMLID_996_" class="st2" d="M44.66,144.2c-2.98,3.93-5.85,5.89-8.63,5.89c-1.02,0-1.9-0.4-2.63-1.21    c-0.74-0.8-1.1-1.83-1.1-3.07c0-3,1.34-6.19,4.01-9.59c2.67-3.39,5.37-5.09,8.08-5.09c1.38,0,2.29,0.7,2.72,2.09    c1.3,0,1.95,0.5,1.95,1.49c0,0.48-0.12,1.34-0.37,2.58c-0.45,2.33-0.68,4.19-0.68,5.59c0,1.45,0.1,2.47,0.3,3.06    c0.2,0.59,0.34,0.97,0.43,1.15c0.09,0.18,0.36,0.37,0.81,0.58c0.45,0.22,0.68,0.52,0.68,0.9c0,0.58-0.29,1.06-0.87,1.44    c-0.58,0.38-1.19,0.58-1.83,0.58C45.4,150.6,44.44,148.47,44.66,144.2z M43.64,134.77c-1.14,0-2.63,1.27-4.46,3.8    s-2.74,4.68-2.74,6.44c0,0.93,0.19,1.39,0.58,1.39c1.34,0,2.98-1.19,4.93-3.56c1.95-2.37,2.93-4.45,2.93-6.22    c0-0.57-0.13-1.02-0.38-1.35C44.24,134.94,43.96,134.77,43.64,134.77z"/>
		<path id="XMLID_993_" class="st2" d="M59.58,121.14c1.22,0,1.83,0.67,1.83,2c0,0.61-0.09,1.27-0.25,1.98    c-0.17,0.71-0.63,2.46-1.39,5.25c-0.55,2.03-0.98,4.24-1.27,6.63c-0.29,2.39-0.43,4.27-0.43,5.61c0,1.44,0.11,3.15,0.32,5.13    c0.06,0.53,0.09,0.87,0.09,1c0,0.68-0.25,1.26-0.75,1.75c-0.5,0.49-1.04,0.73-1.63,0.73c-0.8,0-1.37-0.38-1.7-1.14    s-0.49-2.06-0.49-3.91c0-3.97,0.47-8.65,1.4-14.04c0.93-5.39,1.7-8.57,2.29-9.54C58.2,121.63,58.86,121.14,59.58,121.14z"/>
		<path id="XMLID_990_" class="st2" d="M64.46,138.61v0.02c0.36-2.06,0.54-3.24,0.54-3.53c0-0.84,0.18-1.54,0.55-2.11    c0.37-0.57,0.88-0.85,1.54-0.85c0.77,0,1.37,0.18,1.8,0.54c0.43,0.36,0.64,0.77,0.64,1.22c0,0.45-0.21,1.39-0.63,2.8l-0.1,0.37    c-0.62,2.18-1,3.97-1.12,5.35c-0.12,1.38-0.19,2.5-0.19,3.35c0,0.69,0.12,1.61,0.36,2.77c0.03,0.2,0.05,0.37,0.05,0.51    c0,0.26-0.25,0.61-0.74,1.05c-0.49,0.44-1.02,0.66-1.59,0.66c-1.49,0-2.24-1.13-2.24-3.4c0-1.92,0.27-4.27,0.82-7.03    C64.26,139.73,64.37,139.15,64.46,138.61z M72.66,124.65c0,0.8-0.36,1.51-1.09,2.11c-0.72,0.61-1.35,0.91-1.88,0.91    c-0.68,0-1.28-0.28-1.81-0.85c-0.53-0.57-0.79-1.13-0.79-1.7c0-0.82,0.26-1.47,0.78-1.98c0.52-0.5,1.27-0.76,2.24-0.76    c0.76,0,1.37,0.22,1.84,0.67C72.42,123.51,72.66,124.04,72.66,124.65z"/>
		<path id="XMLID_988_" class="st2" d="M81.23,145.57c-0.05-0.61-1.02-1.36-2.92-2.24c-2.33-1.12-3.82-2.09-4.47-2.9    c-0.64-0.81-0.97-1.69-0.97-2.64c0-2,1.12-3.76,3.37-5.26c2.25-1.5,4.34-2.25,6.29-2.25c1.91,0,2.87,0.83,2.87,2.5    c0,0.44-0.22,0.84-0.65,1.19c-0.44,0.35-0.81,0.53-1.11,0.53c-0.12,0-0.35-0.08-0.66-0.24c-0.32-0.16-0.56-0.24-0.73-0.24    c-1.01,0-2.12,0.34-3.33,1.02c-1.21,0.68-1.82,1.47-1.82,2.38c0,0.44,0.22,0.87,0.65,1.28c0.43,0.41,1.31,0.93,2.63,1.55    c1.96,0.93,3.25,1.77,3.87,2.51c0.62,0.75,0.93,1.57,0.93,2.48c0,1.65-1.12,3.03-3.35,4.13c-2.24,1.1-4.75,1.66-7.53,1.66    c-2.05,0-3.07-0.74-3.07-2.22c0-0.54,0.21-1.01,0.64-1.39c0.43-0.39,0.91-0.58,1.44-0.58c0.22,0,0.55,0.08,1,0.24    c0.45,0.17,0.87,0.25,1.26,0.25c1.06,0,2.18-0.17,3.34-0.51C80.09,146.49,80.86,146.07,81.23,145.57z"/>
		<path id="XMLID_986_" class="st2" d="M91.78,142.06c1.88-3.52,3.5-5.92,4.86-7.19c1.36-1.27,2.74-1.91,4.13-1.91    c0.96,0,1.76,0.33,2.4,0.99c0.64,0.66,1.11,2.39,1.4,5.17c0.12,1.32,0.28,2.39,0.48,3.21c0.19,0.81,0.41,1.54,0.65,2.16    c0.24,0.63,0.58,1.22,1.02,1.77c0.34,0.44,0.51,0.87,0.51,1.27c0,0.41-0.2,0.78-0.59,1.12c-0.39,0.34-0.84,0.51-1.35,0.51    c-1.01,0-1.9-0.55-2.68-1.65c-0.78-1.1-1.25-2.62-1.39-4.55c-0.18-2.37-0.38-3.88-0.59-4.53c-0.21-0.66-0.56-0.98-1.04-0.98    c-0.66,0-1.93,1.31-3.83,3.93s-3.26,4.72-4.1,6.29c-0.52,1.19-0.92,1.96-1.21,2.31c-0.28,0.35-0.63,0.53-1.05,0.53    c-0.69,0-1.25-0.17-1.68-0.51c-0.43-0.34-0.64-0.82-0.64-1.44c0-0.31,0.15-1.26,0.46-2.87c1.15-6.08,2.1-12.55,2.84-19.41    c0.18-1.65,0.53-2.79,1.04-3.42c0.52-0.63,0.99-0.94,1.42-0.94c0.6,0,1.12,0.23,1.56,0.7c0.44,0.46,0.66,1.11,0.66,1.94    c0,1.27-0.15,2.73-0.46,4.38c-0.31,1.65-0.88,4.29-1.71,7.91C92.37,139.03,92,140.77,91.78,142.06z"/>
		<path id="XMLID_983_" class="st2" d="M121.25,144.2c-2.98,3.93-5.85,5.89-8.63,5.89c-1.02,0-1.9-0.4-2.63-1.21    c-0.74-0.8-1.1-1.83-1.1-3.07c0-3,1.34-6.19,4.01-9.59c2.67-3.39,5.37-5.09,8.08-5.09c1.38,0,2.29,0.7,2.72,2.09    c1.3,0,1.95,0.5,1.95,1.49c0,0.48-0.12,1.34-0.37,2.58c-0.45,2.33-0.68,4.19-0.68,5.59c0,1.45,0.1,2.47,0.3,3.06    c0.2,0.59,0.34,0.97,0.43,1.15c0.09,0.18,0.36,0.37,0.81,0.58c0.45,0.22,0.68,0.52,0.68,0.9c0,0.58-0.29,1.06-0.87,1.44    c-0.58,0.38-1.19,0.58-1.83,0.58C122,150.6,121.04,148.47,121.25,144.2z M120.24,134.77c-1.14,0-2.63,1.27-4.46,3.8    s-2.74,4.68-2.74,6.44c0,0.93,0.19,1.39,0.58,1.39c1.34,0,2.98-1.19,4.93-3.56c1.95-2.37,2.93-4.45,2.93-6.22    c0-0.57-0.13-1.02-0.38-1.35C120.84,134.94,120.55,134.77,120.24,134.77z"/>
		<path id="XMLID_981_" class="st2" d="M149.76,128.83l-5.23,0.27c-1.82,0.1-3.39,0.26-4.7,0.48c-1.31,0.22-2.02,0.39-2.13,0.51    c-0.11,0.12-0.18,0.47-0.23,1.04c-0.06,0.57-0.26,1.56-0.61,2.99c-0.28,1.09-0.45,1.98-0.51,2.67c0.72,0,1.77-0.07,3.12-0.22    c1.36-0.15,2.32-0.29,2.89-0.43c1.63-0.4,2.89-0.59,3.79-0.59c1.79,0,2.68,0.53,2.68,1.6c0,0.78-0.25,1.32-0.75,1.62    c-0.5,0.3-1.28,0.51-2.34,0.62c-0.66,0.07-1.39,0.17-2.21,0.31c-0.43,0.07-0.97,0.14-1.61,0.2c-3.14,0.36-4.99,0.64-5.55,0.85    h-0.02c-0.19,0.06-0.34,0.19-0.43,0.39c-0.1,0.2-0.27,1.04-0.52,2.52c-0.25,1.48-0.37,2.51-0.37,3.1    c0.06,0.42,0.32,0.63,0.78,0.63c0.54,0,1.97-0.15,4.29-0.45c2.31-0.3,3.75-0.51,4.3-0.62c1.55-0.33,2.56-0.49,3.04-0.49    c1.44,0.2,2.16,0.87,2.16,2c0,0.52-0.17,0.92-0.51,1.19c-1.13,0.51-2.7,0.83-4.7,0.95c-1.55,0.09-3.43,0.28-5.64,0.58    c-1.97,0.42-3.83,0.63-5.57,0.63c-0.92,0-1.58-0.2-1.99-0.59c-0.41-0.39-0.65-1-0.73-1.83l-0.05-0.56    c-0.01-0.09,0.09-0.44,0.29-1.04c0.45-1.39,1.01-4.49,1.66-9.29c0.66-4.8,0.98-7.47,0.98-8.01c0-0.01-0.03-0.06-0.1-0.14    c-0.08-0.07-0.21-0.29-0.4-0.65c-0.19-0.37-0.28-0.74-0.28-1.13c0-0.2,0.02-0.37,0.07-0.49c0.05-0.24,0.29-0.48,0.73-0.71    c0.44-0.24,0.85-0.36,1.24-0.36c0.53,0,1.07,0.03,1.61,0.1c0.94,0,4-0.34,9.17-1.02c1.72-0.23,2.62-0.34,2.7-0.34l0.24-0.02    c2.04-0.15,3.06,0.51,3.06,1.97c0,0.27-0.18,0.61-0.55,1.01C150.46,128.49,150.1,128.74,149.76,128.83z"/>
		<path id="XMLID_978_" class="st2" d="M165.69,144.22c-2.93,4.15-5.88,6.23-8.85,6.23c-1.2,0-2.17-0.47-2.9-1.42    c-0.74-0.94-1.1-2.15-1.1-3.61c0-2.95,1.21-5.89,3.63-8.81c2.42-2.92,4.86-4.38,7.34-4.38c1.43,0,2.44,0.37,3.04,1.12    c0.85-3.71,1.35-6.03,1.51-6.96c0.34-1.72,0.62-2.86,0.85-3.43c0.23-0.57,0.57-1,1.04-1.32c0.46-0.31,0.87-0.47,1.21-0.47    c0.58,0,1.02,0.24,1.32,0.71c0.31,0.48,0.46,1.08,0.46,1.8c0,0.32-0.25,1.23-0.75,2.73c-0.81,2.45-1.57,5.4-2.27,8.86    s-1.04,6.22-1.04,8.27c0,1.96,0.43,2.94,1.29,2.94c0.44,0,0.91-0.12,1.41-0.36c0.5-0.23,0.85-0.34,1.05-0.34    c0.55,0,0.83,0.32,0.83,0.97c0,0.78-0.56,1.56-1.69,2.33c-1.13,0.78-2.19,1.16-3.2,1.16c-1.09,0-1.92-0.58-2.51-1.75    C165.76,147.35,165.54,145.91,165.69,144.22z M163.81,135.5c-1.48,0-3.03,1.13-4.64,3.4c-1.61,2.26-2.42,4.34-2.42,6.21    c0,1.1,0.41,1.65,1.22,1.65c1.38,0,3.03-1.23,4.94-3.69c1.91-2.46,2.87-4.4,2.87-5.82c0-0.43-0.18-0.83-0.54-1.2    C164.87,135.69,164.39,135.5,163.81,135.5z"/>
		<path id="XMLID_975_" class="st2" d="M188.56,143.67c-1.09,1.98-2.35,3.56-3.78,4.72c-1.43,1.17-2.88,1.75-4.36,1.75    c-0.87,0-1.75-0.46-2.64-1.38c-0.89-0.92-1.33-2.33-1.33-4.23c0-1.35,0.34-3.38,1.02-6.1c0.59-2.24,0.88-3.94,0.88-5.11    c0.45-0.95,1.16-1.43,2.12-1.43c0.66,0,1.18,0.22,1.57,0.65c0.39,0.44,0.59,0.87,0.59,1.32c0,0.8-0.28,1.95-0.85,3.43    c-0.33,0.88-0.68,2.13-1.06,3.74s-0.57,2.65-0.57,3.1c0,1.51,0.31,2.26,0.93,2.26c0.98,0,2.31-0.95,3.99-2.84    c1.67-1.89,2.77-3.83,3.28-5.81c0.51-1.94,0.96-3.2,1.36-3.8c0.4-0.6,0.96-0.9,1.68-0.9c1.18,0,1.77,0.66,1.77,1.97    c0,0.19-0.1,0.58-0.29,1.15c-0.67,2-1,4.26-1,6.78c0,2.94,0.5,4.7,1.49,5.28c0.33,0.19,0.49,0.43,0.49,0.71    c0,0.41-0.29,0.79-0.87,1.15c-0.58,0.36-1.13,0.54-1.65,0.54c-0.89,0-1.58-0.63-2.06-1.89C188.8,147.5,188.56,145.8,188.56,143.67    z"/>
	</g>
	<g>
		<path class="st3" d="M208.49,148.68c1.2-0.3,2.41-0.61,3.63-0.94v-7.36h-3.2v-1.83h3.2v-5.89h-3.4v-1.83h8.74v1.83h-3.4v5.89h3.15    v1.83h-3.15v6.82c1.11-0.32,2.23-0.66,3.35-1c0,0.81,0.02,1.48,0.05,2.01c-2.64,0.76-5.5,1.63-8.58,2.59L208.49,148.68z     M218.32,145.61h11.12v1.85h-11.12V145.61z M222.2,133.24l-0.63,7.16h6.28l0.77-8.74h-9.75v-1.85h11.88l-0.95,10.59h3.06    c-0.15,4.1-0.3,7.08-0.43,8.96c-0.15,2.69-1.52,4.04-4.11,4.04c-0.98,0-2.41-0.03-4.29-0.08c-0.1-0.64-0.22-1.37-0.36-2.18    c1.42,0.14,2.94,0.21,4.55,0.23c1.37,0,2.12-0.8,2.23-2.39c0.12-1.37,0.23-3.61,0.33-6.73h-11.4l0.84-9.01H222.2z"/>
		<path class="st3" d="M234.59,150.74h11.53v-3.33h-10.01v-1.78h10.01v-3.33h-7.06v0.91h-1.98V130.2h20.16v13.03h-1.98v-0.91h-7.08    v3.33h10.03v1.78h-10.03v3.33h11.66v1.83h-25.24V150.74z M239.06,135.38h7.06v-3.43h-7.06V135.38z M239.06,140.56h7.06v-3.43    h-7.06V140.56z M255.27,131.95h-7.08v3.43h7.08V131.95z M248.18,140.56h7.08v-3.43h-7.08V140.56z"/>
		<path class="st3" d="M261.89,139.57c1.61,1.1,2.97,2.13,4.09,3.1l-1.27,1.6c-1.71-1.49-3.06-2.56-4.04-3.2L261.89,139.57z     M260.78,131.62h6.96v-2.74h2.03v2.74h6.86v-2.74h2.03v2.74h6.98v1.8h-6.98v2.11h-2.03v-2.11h-6.86v2.23h-2.03v-2.23h-6.96V131.62    z M266.39,144.77c0.49,0.42,1.07,0.87,1.75,1.35c-2.2,3.47-3.91,6.08-5.13,7.82l-1.83-1.35    C263.01,150.29,264.75,147.68,266.39,144.77z M264.64,135.4c1.49,1,2.91,2.02,4.27,3.07l-1.37,1.6c-1.29-1.13-2.66-2.22-4.11-3.25    L264.64,135.4z M267.3,151.98c6.99-1.22,11.81-4.05,14.45-8.51l1.75,1.12c-3.27,4.83-8.3,7.94-15.08,9.35    C268.15,153.4,267.78,152.74,267.3,151.98z M271.95,138.27l1.83,0.69c-0.85,2.2-1.85,4.52-3.02,6.96    c-0.59-0.32-1.23-0.63-1.9-0.91C270.1,142.8,271.14,140.56,271.95,138.27z M275.99,136.04h1.98v10.89h-1.98V136.04z     M280.23,139.16l1.55-1.07c1.56,1.85,2.95,3.61,4.16,5.28l-1.68,1.24C283.06,142.82,281.72,141,280.23,139.16z"/>
	</g>
	<rect x="200.55" y="129.9" class="st0" width="1.39" height="21.38"/>
	<g>
		<path class="st3" d="M0.37,161.42c-0.07-0.12-0.1-0.27-0.1-0.46c0-0.28,0.1-0.46,0.3-0.56c0.2-0.1,0.79-0.15,1.78-0.17    c1.22-0.01,2.31-0.05,3.28-0.13c0.97-0.08,2.46-0.26,4.48-0.54c0.76-0.1,1.49-0.16,2.18-0.16c0.35,0,0.68,0.02,0.99,0.06    c0.31,0.04,0.54,0.08,0.67,0.12c0.13,0.04,0.24,0.15,0.32,0.33c0.08,0.18,0.12,0.32,0.12,0.42c0,0.43-0.15,0.65-0.46,0.65    c-0.2,0-0.48-0.02-0.82-0.06c-0.35-0.03-0.83-0.05-1.44-0.05c-0.62,0-1.38,0.04-2.27,0.13c-0.89,0.09-1.38,0.23-1.48,0.44    c-0.1,0.2-0.26,1.39-0.48,3.58s-0.33,3.81-0.33,4.88c0,0.5,0.08,1.07,0.23,1.71c0.02,0.12,0.04,0.2,0.04,0.22    c0,0.27-0.07,0.51-0.22,0.73c-0.15,0.22-0.32,0.33-0.53,0.33c-0.32,0-0.58-0.15-0.79-0.46s-0.32-1.16-0.32-2.57    c0-1.33,0.25-3.93,0.76-7.8c0.02-0.21,0.04-0.31,0.04-0.32c0-0.21-0.11-0.31-0.34-0.31c-0.37,0-1.07,0.05-2.1,0.14    c-1.03,0.1-1.77,0.15-2.21,0.15C0.99,161.73,0.56,161.63,0.37,161.42z"/>
		<path class="st3" d="M15.33,169.81c2.27-4.2,4.15-6.3,5.62-6.3c0.39,0,0.71,0.22,0.95,0.67c0.24,0.45,0.44,1.44,0.6,2.97    c0.15,1.63,0.5,2.81,1.04,3.54c0.27,0.37,0.41,0.65,0.41,0.83c0,0.16-0.09,0.31-0.28,0.44c-0.18,0.13-0.38,0.2-0.59,0.2    c-0.48,0-0.9-0.27-1.27-0.8c-0.37-0.54-0.6-1.47-0.71-2.82c-0.1-1.27-0.21-2.1-0.33-2.49c-0.12-0.39-0.31-0.59-0.58-0.59    c-0.64,0-1.93,1.68-3.88,5.03c-0.58,1-1.01,1.66-1.28,1.97c-0.27,0.31-0.53,0.46-0.75,0.46c-0.27,0-0.5-0.08-0.68-0.24    s-0.27-0.35-0.27-0.59c0-0.17,0.05-0.5,0.15-0.99c0.75-3.88,1.34-7.72,1.78-11.51c0.1-0.89,0.25-1.48,0.47-1.77    c0.22-0.29,0.4-0.44,0.55-0.44c0.26,0,0.5,0.11,0.71,0.32s0.32,0.51,0.32,0.89c0,1.13-0.27,2.67-0.82,4.63    c-0.27,0.97-0.55,2.21-0.85,3.7c-0.3,1.5-0.45,2.42-0.45,2.78c0,0.07,0.03,0.11,0.1,0.11H15.33z"/>
		<path class="st3" d="M33.43,169.46c0,0.62-0.55,1.38-1.65,2.25c-1.1,0.88-2.24,1.32-3.41,1.32c-0.98,0-1.74-0.29-2.28-0.87    s-0.8-1.39-0.8-2.43c0-1.75,0.59-3.41,1.77-4.99c1.18-1.58,2.47-2.37,3.87-2.37c0.46,0,0.83,0.15,1.12,0.45    c0.29,0.3,0.44,0.66,0.44,1.08c0,0.94-0.46,1.84-1.38,2.7c-0.92,0.86-2.16,1.71-3.7,2.54c-0.32,0.17-0.48,0.38-0.48,0.64    c0,0.51,0.15,0.91,0.44,1.22s0.73,0.46,1.3,0.46c1.31,0,2.65-0.73,4.02-2.18c0.2-0.2,0.35-0.3,0.46-0.3    C33.33,168.99,33.43,169.14,33.43,169.46z M27.06,168.03c2.59-1.54,3.89-2.78,3.89-3.71c0-0.37-0.17-0.55-0.5-0.55    c-0.56,0-1.2,0.41-1.9,1.24C27.84,165.83,27.35,166.84,27.06,168.03z"/>
		<path class="st3" d="M52.43,169.8c0.24,0,0.36,0.15,0.36,0.44c0,0.31-0.34,0.74-1.02,1.31c-0.68,0.57-1.46,1.02-2.35,1.36    s-1.7,0.5-2.44,0.5c-1.08,0-2.07-0.36-2.96-1.07s-1.33-1.75-1.33-3.11c0-2.47,1.06-4.88,3.19-7.23c2.13-2.34,4.18-3.51,6.16-3.51    c0.74,0,1.33,0.23,1.77,0.68s0.66,0.99,0.66,1.59c0,0.56-0.03,1-0.1,1.33c-0.06,0.32-0.26,0.6-0.58,0.82    c-0.32,0.22-0.58,0.33-0.78,0.33c-0.14,0-0.26-0.06-0.37-0.18c-0.1-0.12-0.16-0.29-0.16-0.49c0-0.14,0.05-0.43,0.16-0.88    c0.1-0.44,0.16-0.77,0.16-0.98c0-0.62-0.27-0.93-0.82-0.93c-0.84,0-1.89,0.48-3.13,1.45c-1.24,0.97-2.3,2.2-3.17,3.68    s-1.3,2.86-1.3,4.11c0,0.84,0.25,1.53,0.75,2.08s1.21,0.83,2.13,0.83c0.53,0,1.18-0.13,1.94-0.4c0.76-0.27,1.46-0.62,2.09-1.07    C51.94,170.02,52.31,169.8,52.43,169.8z"/>
		<path class="st3" d="M57.48,169.81c2.27-4.2,4.15-6.3,5.62-6.3c0.39,0,0.71,0.22,0.95,0.67c0.24,0.45,0.44,1.44,0.6,2.97    c0.15,1.63,0.5,2.81,1.04,3.54c0.27,0.37,0.41,0.65,0.41,0.83c0,0.16-0.09,0.31-0.28,0.44c-0.18,0.13-0.38,0.2-0.59,0.2    c-0.48,0-0.9-0.27-1.27-0.8c-0.37-0.54-0.6-1.47-0.71-2.82c-0.1-1.27-0.21-2.1-0.33-2.49c-0.12-0.39-0.31-0.59-0.58-0.59    c-0.64,0-1.93,1.68-3.88,5.03c-0.58,1-1.01,1.66-1.28,1.97c-0.27,0.31-0.53,0.46-0.75,0.46c-0.27,0-0.5-0.08-0.68-0.24    s-0.27-0.35-0.27-0.59c0-0.17,0.05-0.5,0.15-0.99c0.75-3.88,1.34-7.72,1.78-11.51c0.1-0.89,0.25-1.48,0.47-1.77    c0.22-0.29,0.4-0.44,0.55-0.44c0.26,0,0.5,0.11,0.71,0.32s0.32,0.51,0.32,0.89c0,1.13-0.27,2.67-0.82,4.63    c-0.27,0.97-0.55,2.21-0.85,3.7c-0.3,1.5-0.45,2.42-0.45,2.78c0,0.07,0.03,0.11,0.1,0.11H57.48z"/>
		<path class="st3" d="M69.48,170.53c0,0.46,0.06,0.99,0.19,1.57c0.02,0.11,0.04,0.2,0.04,0.28c0,0.11-0.1,0.25-0.3,0.43    c-0.2,0.17-0.42,0.26-0.64,0.26c-0.59,0-0.89-0.54-0.89-1.63c0-1.12,0.23-2.9,0.7-5.33c0.16-0.85,0.24-1.37,0.24-1.57    c0-0.38,0.07-0.71,0.21-0.99c0.14-0.27,0.34-0.41,0.6-0.41c0.31,0,0.56,0.07,0.74,0.22c0.18,0.15,0.27,0.32,0.27,0.5    s-0.04,0.42-0.13,0.72c-0.46,1.61-0.74,2.77-0.85,3.46C69.54,168.74,69.48,169.57,69.48,170.53z M70.68,160.29    c-0.13,0-0.23-0.14-0.29-0.41c-0.02-0.08-0.06-0.18-0.1-0.28c-0.17-0.4-0.25-0.74-0.25-1.04c0-0.24,0.15-0.49,0.44-0.75    s0.61-0.38,0.97-0.38c0.18,0,0.38,0.07,0.6,0.21c0.22,0.14,0.33,0.27,0.33,0.4c0,0.2-0.08,0.54-0.22,1.03    c-0.15,0.48-0.39,0.81-0.72,0.98C71.1,160.21,70.85,160.29,70.68,160.29z"/>
		<path class="st3" d="M79.4,165.51c-0.32,0-0.66,0.21-1.04,0.62c-0.38,0.42-0.95,1.35-1.72,2.8c-1.01,1.94-1.67,3.05-1.97,3.32    c-0.3,0.27-0.54,0.4-0.74,0.4c-0.72,0-1.08-0.35-1.08-1.04c0-0.29,0.05-0.71,0.15-1.25c0.34-1.84,0.5-3.79,0.5-5.84    c0-0.23,0.1-0.49,0.3-0.77s0.39-0.43,0.56-0.43c0.32,0,0.54,0.1,0.68,0.29c0.13,0.2,0.2,0.59,0.2,1.18c0,0.62-0.18,1.89-0.55,3.81    c-0.12,0.63-0.18,1.04-0.18,1.21c0,0.1,0.02,0.15,0.07,0.15c0.09,0,0.52-0.73,1.27-2.19c0.76-1.48,1.43-2.53,2.01-3.13    c0.57-0.6,1.21-0.91,1.9-0.91c0.55,0,1,0.25,1.34,0.75s0.6,1.41,0.76,2.74c0.17,1.51,0.33,2.45,0.46,2.82    c0.14,0.37,0.36,0.55,0.66,0.55c0.19,0,0.43-0.07,0.71-0.2c0.05-0.02,0.09-0.04,0.11-0.04c0.26,0,0.39,0.15,0.39,0.46    c0,0.27-0.18,0.55-0.54,0.86c-0.36,0.3-0.79,0.45-1.3,0.45c-0.52,0-0.92-0.21-1.21-0.62c-0.28-0.41-0.51-1.51-0.67-3.3    C80.31,166.41,79.95,165.51,79.4,165.51z"/>
		<path class="st3" d="M93.45,169.46c0,0.62-0.55,1.38-1.65,2.25c-1.1,0.88-2.24,1.32-3.41,1.32c-0.98,0-1.74-0.29-2.28-0.87    s-0.8-1.39-0.8-2.43c0-1.75,0.59-3.41,1.77-4.99c1.18-1.58,2.47-2.37,3.87-2.37c0.46,0,0.83,0.15,1.12,0.45    c0.29,0.3,0.44,0.66,0.44,1.08c0,0.94-0.46,1.84-1.38,2.7c-0.92,0.86-2.16,1.71-3.7,2.54c-0.32,0.17-0.48,0.38-0.48,0.64    c0,0.51,0.15,0.91,0.44,1.22s0.73,0.46,1.3,0.46c1.31,0,2.65-0.73,4.02-2.18c0.2-0.2,0.35-0.3,0.46-0.3    C93.35,168.99,93.45,169.14,93.45,169.46z M87.08,168.03c2.59-1.54,3.89-2.78,3.89-3.71c0-0.37-0.17-0.55-0.5-0.55    c-0.56,0-1.2,0.41-1.9,1.24C87.86,165.83,87.37,166.84,87.08,168.03z"/>
		<path class="st3" d="M99.98,170.47c0-0.4-0.49-0.85-1.47-1.36c-1.24-0.63-2.08-1.14-2.52-1.53c-0.44-0.38-0.66-0.81-0.66-1.28    c0-1.22,0.61-2.22,1.83-3.02c1.22-0.8,2.21-1.2,2.98-1.2c0.5,0,0.85,0.09,1.08,0.26c0.22,0.17,0.33,0.47,0.33,0.89    c0,0.19-0.08,0.35-0.24,0.49c-0.16,0.13-0.29,0.2-0.38,0.2c-0.07,0-0.2-0.05-0.39-0.14c-0.2-0.09-0.32-0.13-0.38-0.13    c-0.31,0-0.93,0.22-1.86,0.67c-0.94,0.45-1.4,0.95-1.4,1.51c0,0.34,0.17,0.65,0.49,0.93c0.33,0.28,0.92,0.62,1.78,1.02    c0.69,0.33,1.24,0.68,1.65,1.06c0.41,0.38,0.62,0.82,0.62,1.33c0,0.93-0.65,1.67-1.93,2.2c-1.29,0.53-2.52,0.79-3.69,0.79    c-0.99,0-1.49-0.34-1.49-1.01c0-0.23,0.11-0.4,0.33-0.51c0.22-0.11,0.45-0.17,0.67-0.17c0.09,0,0.27,0.03,0.52,0.09    c0.25,0.06,0.42,0.09,0.5,0.09c0.68,0,1.41-0.11,2.18-0.34C99.31,171.08,99.79,170.8,99.98,170.47z"/>
		<path class="st3" d="M111.18,169.46c0,0.62-0.55,1.38-1.65,2.25c-1.1,0.88-2.24,1.32-3.41,1.32c-0.98,0-1.74-0.29-2.28-0.87    s-0.8-1.39-0.8-2.43c0-1.75,0.59-3.41,1.77-4.99c1.18-1.58,2.47-2.37,3.87-2.37c0.46,0,0.83,0.15,1.12,0.45    c0.29,0.3,0.44,0.66,0.44,1.08c0,0.94-0.46,1.84-1.38,2.7c-0.92,0.86-2.16,1.71-3.7,2.54c-0.32,0.17-0.48,0.38-0.48,0.64    c0,0.51,0.15,0.91,0.44,1.22s0.73,0.46,1.3,0.46c1.31,0,2.65-0.73,4.02-2.18c0.2-0.2,0.35-0.3,0.46-0.3    C111.08,168.99,111.18,169.14,111.18,169.46z M104.81,168.03c2.59-1.54,3.89-2.78,3.89-3.71c0-0.37-0.17-0.55-0.5-0.55    c-0.56,0-1.2,0.41-1.9,1.24C105.59,165.83,105.09,166.84,104.81,168.03z"/>
		<path class="st3" d="M131.23,160.74c-0.02,0.01-0.19,0-0.5-0.01c-0.31-0.01-0.64,0.02-0.97,0.09c-0.33,0.08-0.62,0.13-0.88,0.15    c-0.18,0.01-0.37,0.04-0.58,0.07c-0.26,0.05-0.78,0.08-1.56,0.08c-1.17,0.02-1.9,0.1-2.2,0.24c-0.3,0.14-0.47,0.43-0.51,0.87    c-0.03,0.34-0.09,0.71-0.19,1.11c-0.3,1.2-0.45,2-0.45,2.4l0.14,0.01c0.29,0.02,0.87-0.02,1.74-0.12c0.87-0.1,1.53-0.2,1.96-0.29    c0.89-0.21,1.57-0.32,2.04-0.32c0.76,0,1.15,0.21,1.15,0.61c0,0.5-0.26,0.81-0.77,0.92c-0.51,0.11-1.58,0.26-3.19,0.44    c-1.98,0.22-3.04,0.42-3.17,0.59c-0.13,0.17-0.27,0.73-0.42,1.68s-0.22,1.55-0.22,1.81v0.1c0.03,0.31,0.23,0.48,0.59,0.52    l0.17,0.01c0.34,0.02,0.74-0.01,1.2-0.08l1.76-0.26c0.65-0.09,1.32-0.2,1.99-0.32c0.84-0.18,1.37-0.27,1.59-0.27    c0.17,0,0.36,0.07,0.57,0.22s0.32,0.37,0.32,0.68c0,0.23-0.05,0.38-0.17,0.47c-0.62,0.27-1.43,0.43-2.41,0.46    c-0.85,0.03-2.18,0.17-3.98,0.43c-0.91,0.13-1.51,0.2-1.8,0.2c-0.72,0-1.16-0.06-1.34-0.17s-0.29-0.39-0.33-0.83l-0.04-0.31v-0.04    c0-0.1,0.06-0.3,0.17-0.6c0.15-0.43,0.33-1.26,0.54-2.48c0.2-1.22,0.34-2.18,0.4-2.89c0.03-0.24,0.08-0.54,0.15-0.89    c0.27-1.46,0.4-2.62,0.4-3.46c0-0.04-0.06-0.16-0.18-0.34c-0.03-0.04-0.05-0.07-0.06-0.09c-0.04-0.14-0.08-0.26-0.12-0.35    c-0.04-0.08-0.06-0.19-0.06-0.3v-0.09c0-0.13,0.08-0.25,0.25-0.36c0.16-0.1,0.32-0.16,0.48-0.16h0.03c0.26,0,0.55,0.02,0.88,0.06    h0.04c0.14,0,0.82-0.06,2.04-0.17c1.22-0.12,2.67-0.32,4.35-0.6c0.18-0.03,0.28-0.05,0.32-0.05l0.14-0.01    c0.48-0.03,0.81,0.02,0.99,0.14s0.29,0.37,0.33,0.73c0,0.17-0.08,0.34-0.24,0.5C131.45,160.64,131.33,160.73,131.23,160.74z"/>
		<path class="st3" d="M140.01,168.77c-0.82,1.31-1.69,2.33-2.6,3.04s-1.76,1.07-2.53,1.07c-0.59,0-1.06-0.23-1.41-0.68    s-0.52-1.06-0.52-1.82c0-1.55,0.63-3.13,1.88-4.76c1.26-1.63,2.61-2.44,4.06-2.44c0.64,0,1.23,0.27,1.77,0.82l1.28-6    c0.09-0.41,0.26-0.68,0.51-0.83c0.25-0.14,0.44-0.21,0.58-0.21c0.43,0,0.64,0.38,0.64,1.14c0,0.13-0.14,0.63-0.42,1.5    c-0.45,1.34-0.87,3-1.27,4.95c-0.4,1.96-0.6,3.53-0.6,4.72c0,1.22,0.27,1.83,0.8,1.83c0.34,0,0.7-0.11,1.06-0.34    c0.15-0.11,0.3-0.17,0.43-0.17c0.2,0,0.29,0.13,0.29,0.39c0,0.31-0.27,0.67-0.82,1.08s-1.11,0.61-1.68,0.61    c-1.01,0-1.51-0.97-1.51-2.92C139.97,169.44,139.98,169.1,140.01,168.77z M138.81,164.48c-0.99,0-1.97,0.67-2.94,2.01    c-0.97,1.34-1.46,2.58-1.46,3.72c0,0.76,0.25,1.15,0.76,1.15c0.48,0,1.06-0.25,1.74-0.75c0.68-0.5,1.38-1.3,2.1-2.4    c0.72-1.1,1.08-1.92,1.08-2.47c0-0.27-0.12-0.54-0.37-0.83S139.17,164.48,138.81,164.48z"/>
		<path class="st3" d="M152.33,168.58c-0.78,1.31-1.58,2.33-2.4,3.05c-0.82,0.72-1.58,1.08-2.28,1.08c-0.4,0-0.81-0.24-1.23-0.71    c-0.42-0.47-0.63-1.19-0.63-2.17c0-0.8,0.19-1.98,0.58-3.54c0.32-1.3,0.49-2.21,0.49-2.74c0.18-0.37,0.46-0.55,0.83-0.55    c0.26,0,0.46,0.09,0.62,0.27c0.15,0.18,0.23,0.37,0.23,0.56c0,0.43-0.15,1.04-0.45,1.82c-0.57,1.53-0.85,2.85-0.85,3.95    c0,1,0.23,1.5,0.7,1.5c0.59,0,1.35-0.5,2.27-1.51c0.92-1.01,1.7-2.41,2.36-4.22c0.26-0.72,0.46-1.19,0.63-1.41    s0.38-0.33,0.66-0.33c0.41,0,0.62,0.27,0.62,0.82c0,0.07-0.06,0.29-0.17,0.67c-0.37,1.34-0.55,2.6-0.55,3.79    c0,1.43,0.24,2.36,0.71,2.78c0.24,0.23,0.37,0.41,0.37,0.55c0,0.17-0.12,0.33-0.37,0.47s-0.47,0.21-0.67,0.21    c-0.43,0-0.77-0.32-1.04-0.95c-0.26-0.64-0.39-1.57-0.39-2.81v-0.3C152.32,168.78,152.32,168.68,152.33,168.58z"/>
		<path class="st3" d="M159.8,173.09c-0.92,0-1.62-0.26-2.11-0.79c-0.49-0.53-0.74-1.26-0.74-2.21c0-1.59,0.63-3.28,1.9-5.05    c1.26-1.77,2.44-2.65,3.53-2.65c0.5,0,0.92,0.27,1.28,0.8c0.36,0.53,0.54,1.1,0.54,1.7c0,0.36-0.08,0.67-0.23,0.93    c-0.16,0.26-0.31,0.39-0.47,0.39c-0.35,0-0.6-0.36-0.75-1.07c-0.17-0.77-0.4-1.16-0.71-1.16c-0.64,0-1.39,0.75-2.25,2.26    c-0.87,1.51-1.3,2.78-1.3,3.82s0.59,1.56,1.77,1.56c0.9,0,1.96-0.42,3.17-1.27c0.43-0.3,0.74-0.45,0.94-0.45    c0.21,0,0.31,0.12,0.31,0.36c0,0.46-0.55,1.05-1.64,1.76S160.86,173.09,159.8,173.09z"/>
		<path class="st3" d="M173,169.23c-0.86,1.15-1.7,2.01-2.54,2.58c-0.84,0.58-1.6,0.86-2.3,0.86c-0.47,0-0.88-0.2-1.22-0.6    c-0.34-0.4-0.51-0.91-0.51-1.53c0-1.61,0.72-3.34,2.15-5.19c1.44-1.85,2.86-2.78,4.28-2.78c0.51,0,0.9,0.29,1.15,0.88    c0.08,0.2,0.21,0.29,0.38,0.29c0.49,0,0.73,0.19,0.73,0.57c0,0.19-0.03,0.45-0.09,0.78c-0.33,1.8-0.5,3.07-0.5,3.81    c0,1.48,0.28,2.37,0.84,2.66c0.27,0.15,0.4,0.33,0.4,0.54c0,0.19-0.13,0.38-0.39,0.57s-0.52,0.29-0.76,0.29    c-0.47,0-0.86-0.32-1.16-0.97S173,170.42,173,169.23z M172.44,164.07c-0.81,0-1.74,0.76-2.81,2.27c-1.07,1.51-1.6,2.77-1.6,3.76    c0,0.7,0.23,1.05,0.7,1.05c0.67,0,1.6-0.68,2.8-2.04s1.79-2.6,1.79-3.74C173.3,164.5,173.01,164.07,172.44,164.07z"/>
		<path class="st3" d="M181.57,163.31c0.63-0.05,1.22-0.11,1.78-0.17c0.55-0.06,1.01-0.09,1.37-0.09c0.46,0,0.76,0.04,0.88,0.13    c0.12,0.09,0.18,0.24,0.18,0.45c0,0.5-0.34,0.76-1.04,0.81c-0.89,0.06-1.7,0.13-2.45,0.23c-0.75,0.1-1.15,0.18-1.21,0.24    c-0.06,0.06-0.24,0.79-0.55,2.18c-0.31,1.39-0.47,2.29-0.47,2.71c0,0.67,0.09,1.12,0.27,1.34c0.18,0.22,0.44,0.33,0.8,0.33    c0.53,0,1.26-0.39,2.19-1.18c0.36-0.32,0.64-0.49,0.83-0.49c0.26,0,0.39,0.14,0.39,0.42c0,0.44-0.42,1.01-1.27,1.71    c-0.85,0.7-1.71,1.05-2.6,1.05c-1.48,0-2.22-0.87-2.22-2.61c0-0.63,0.15-1.6,0.46-2.92c0.3-1.31,0.45-2.1,0.45-2.36    c0-0.09-0.07-0.14-0.22-0.14l-0.95,0.08c-0.78,0-1.17-0.31-1.17-0.94c0-0.35,0.18-0.53,0.54-0.53h1.89c0.13,0,0.24-0.06,0.34-0.17    c0.1-0.12,0.24-0.5,0.43-1.17s0.36-1.32,0.5-1.97c0.15-0.64,0.43-0.96,0.86-0.96c0.26,0,0.47,0.09,0.61,0.27    c0.15,0.18,0.22,0.35,0.22,0.51c0,0.09-0.11,0.52-0.33,1.31L181.57,163.31z"/>
		<path class="st3" d="M188.38,170.53c0,0.46,0.06,0.99,0.19,1.57c0.02,0.11,0.04,0.2,0.04,0.28c0,0.11-0.1,0.25-0.3,0.43    c-0.2,0.17-0.42,0.26-0.64,0.26c-0.59,0-0.89-0.54-0.89-1.63c0-1.12,0.23-2.9,0.7-5.33c0.16-0.85,0.24-1.37,0.24-1.57    c0-0.38,0.07-0.71,0.21-0.99c0.14-0.27,0.34-0.41,0.6-0.41c0.31,0,0.56,0.07,0.74,0.22c0.18,0.15,0.27,0.32,0.27,0.5    s-0.04,0.42-0.13,0.72c-0.46,1.61-0.74,2.77-0.85,3.46C188.44,168.74,188.38,169.57,188.38,170.53z M189.59,160.29    c-0.13,0-0.23-0.14-0.29-0.41c-0.02-0.08-0.06-0.18-0.1-0.28c-0.17-0.4-0.25-0.74-0.25-1.04c0-0.24,0.14-0.49,0.44-0.75    c0.29-0.25,0.61-0.38,0.97-0.38c0.18,0,0.38,0.07,0.6,0.21c0.22,0.14,0.33,0.27,0.33,0.4c0,0.2-0.08,0.54-0.22,1.03    c-0.15,0.48-0.39,0.81-0.71,0.98C190.01,160.21,189.76,160.29,189.59,160.29z"/>
		<path class="st3" d="M194.74,173.02c-0.84,0-1.53-0.32-2.07-0.95s-0.82-1.42-0.82-2.36c0-1.58,0.53-3.13,1.59-4.66    c1.06-1.53,2.33-2.3,3.81-2.3c0.98,0,1.77,0.38,2.38,1.13c0.61,0.75,0.91,1.65,0.91,2.69c0,1.59-0.63,3.06-1.88,4.42    C197.4,172.34,196.09,173.02,194.74,173.02z M193.46,169.47c0,0.62,0.13,1.12,0.39,1.51c0.26,0.39,0.6,0.59,1.03,0.59    c0.91,0,1.82-0.5,2.74-1.5c0.92-1,1.38-2.11,1.38-3.33c0-0.75-0.18-1.36-0.53-1.83s-0.82-0.7-1.42-0.7c-0.98,0-1.83,0.6-2.53,1.81    C193.82,167.23,193.46,168.38,193.46,169.47z"/>
		<path class="st3" d="M208.92,165.51c-0.32,0-0.66,0.21-1.04,0.62c-0.38,0.42-0.95,1.35-1.72,2.8c-1.01,1.94-1.67,3.05-1.97,3.32    c-0.3,0.27-0.54,0.4-0.74,0.4c-0.72,0-1.08-0.35-1.08-1.04c0-0.29,0.05-0.71,0.15-1.25c0.34-1.84,0.5-3.79,0.5-5.84    c0-0.23,0.1-0.49,0.3-0.77s0.39-0.43,0.56-0.43c0.32,0,0.54,0.1,0.68,0.29s0.2,0.59,0.2,1.18c0,0.62-0.18,1.89-0.55,3.81    c-0.12,0.63-0.18,1.04-0.18,1.21c0,0.1,0.02,0.15,0.07,0.15c0.09,0,0.52-0.73,1.27-2.19c0.76-1.48,1.43-2.53,2.01-3.13    c0.57-0.6,1.21-0.91,1.9-0.91c0.55,0,1,0.25,1.34,0.75c0.34,0.5,0.6,1.41,0.76,2.74c0.17,1.51,0.33,2.45,0.46,2.82    c0.14,0.37,0.36,0.55,0.66,0.55c0.19,0,0.43-0.07,0.72-0.2c0.05-0.02,0.08-0.04,0.11-0.04c0.26,0,0.39,0.15,0.39,0.46    c0,0.27-0.18,0.55-0.54,0.86s-0.79,0.45-1.3,0.45c-0.52,0-0.92-0.21-1.21-0.62c-0.28-0.41-0.51-1.51-0.67-3.3    C209.83,166.41,209.47,165.51,208.92,165.51z"/>
		<path class="st3" d="M233.26,160.74c-0.02,0.01-0.18,0-0.5-0.01c-0.31-0.01-0.64,0.02-0.97,0.09c-0.33,0.08-0.62,0.13-0.88,0.15    c-0.18,0.01-0.37,0.04-0.58,0.07c-0.26,0.05-0.78,0.08-1.56,0.08c-1.17,0.02-1.9,0.1-2.21,0.24s-0.47,0.43-0.51,0.87    c-0.03,0.34-0.09,0.71-0.19,1.11c-0.3,1.2-0.45,2-0.45,2.4l0.14,0.01c0.29,0.02,0.87-0.02,1.74-0.12s1.53-0.2,1.96-0.29    c0.89-0.21,1.57-0.32,2.04-0.32c0.76,0,1.15,0.21,1.15,0.61c0,0.5-0.25,0.81-0.76,0.92c-0.51,0.11-1.58,0.26-3.19,0.44    c-1.98,0.22-3.04,0.42-3.17,0.59c-0.13,0.17-0.27,0.73-0.42,1.68c-0.15,0.95-0.22,1.55-0.22,1.81v0.1    c0.03,0.31,0.23,0.48,0.59,0.52l0.17,0.01c0.34,0.02,0.74-0.01,1.2-0.08l1.76-0.26c0.65-0.09,1.32-0.2,1.99-0.32    c0.84-0.18,1.37-0.27,1.59-0.27c0.17,0,0.36,0.07,0.57,0.22s0.32,0.37,0.32,0.68c0,0.23-0.05,0.38-0.17,0.47    c-0.62,0.27-1.43,0.43-2.41,0.46c-0.85,0.03-2.18,0.17-3.98,0.43c-0.91,0.13-1.51,0.2-1.8,0.2c-0.71,0-1.16-0.06-1.34-0.17    c-0.18-0.11-0.29-0.39-0.33-0.83l-0.04-0.31v-0.04c0-0.1,0.06-0.3,0.17-0.6c0.15-0.43,0.33-1.26,0.54-2.48    c0.2-1.22,0.34-2.18,0.4-2.89c0.03-0.24,0.08-0.54,0.15-0.89c0.27-1.46,0.4-2.62,0.4-3.46c0-0.04-0.06-0.16-0.18-0.34    c-0.03-0.04-0.05-0.07-0.06-0.09c-0.04-0.14-0.08-0.26-0.12-0.35c-0.04-0.08-0.06-0.19-0.06-0.3v-0.09c0-0.13,0.08-0.25,0.25-0.36    c0.17-0.1,0.32-0.16,0.48-0.16h0.03c0.26,0,0.55,0.02,0.88,0.06h0.04c0.14,0,0.82-0.06,2.04-0.17s2.67-0.32,4.35-0.6    c0.18-0.03,0.28-0.05,0.32-0.05l0.14-0.01c0.48-0.03,0.8,0.02,0.99,0.14c0.18,0.13,0.29,0.37,0.33,0.73c0,0.17-0.08,0.34-0.24,0.5    S233.35,160.73,233.26,160.74z"/>
		<path class="st3" d="M238.63,169.15c-1.39,1.2-2.31,2.41-2.76,3.62c-0.17,0.4-0.35,0.71-0.52,0.91c-0.73-0.04-1.09-0.38-1.09-1.02    c0-0.93,1.04-2.35,3.13-4.25l0.44-0.41c-1.22-1.83-1.82-3.23-1.82-4.21c0-0.87,0.37-1.3,1.1-1.3c0.21,0,0.36,0.09,0.45,0.27    c0.09,0.18,0.17,0.58,0.22,1.21c0.08,0.97,0.5,2,1.26,3.09c1.69-1.45,2.84-2.76,3.43-3.91c0.2-0.37,0.36-0.6,0.47-0.7    c0.11-0.1,0.26-0.15,0.44-0.15c0.22,0,0.43,0.08,0.62,0.26c0.19,0.17,0.29,0.39,0.29,0.65c0,0.61-1.48,2.29-4.46,5.02    c1.02,1.31,2.11,2.29,3.26,2.94c0.14,0.08,0.28,0.16,0.4,0.25c0.02,0.05,0.04,0.14,0.04,0.26c0,0.26-0.1,0.5-0.29,0.71    c-0.19,0.21-0.42,0.31-0.69,0.31C241.71,172.7,240.41,171.52,238.63,169.15z"/>
		<path class="st3" d="M247.35,171.5c-0.3,1.1-0.58,2.64-0.84,4.63l-0.26,1.73c-0.04,0.24-0.16,0.49-0.34,0.73    c-0.18,0.24-0.35,0.36-0.5,0.36c-0.19,0-0.41-0.1-0.65-0.29c-0.24-0.19-0.36-0.35-0.36-0.46c0-0.34,0.08-0.8,0.23-1.39    c1.12-4.52,1.68-8.48,1.68-11.9l-0.01-0.77c-0.01-0.66,0.1-1.14,0.35-1.44c0.24-0.3,0.53-0.45,0.84-0.45    c0.15,0,0.29,0.12,0.42,0.34c0.13,0.23,0.2,0.55,0.2,0.98c0,0.59-0.06,1.31-0.18,2.15c-0.16,1.06-0.24,1.67-0.25,1.83    c0.91-1.59,1.88-2.83,2.9-3.72c1.02-0.89,1.97-1.34,2.84-1.34c0.62,0,1.14,0.23,1.56,0.69c0.42,0.46,0.64,1.03,0.64,1.72    c0,1.99-0.76,3.8-2.29,5.43c-1.53,1.63-3.02,2.44-4.46,2.44c-0.36,0-0.65-0.09-0.86-0.28C247.8,172.32,247.58,171.98,247.35,171.5    z M253.04,164.12c-0.86,0-1.93,0.81-3.2,2.42c-1.27,1.61-1.91,2.87-1.91,3.77c0,0.22,0.13,0.43,0.38,0.64    c0.25,0.21,0.57,0.31,0.95,0.31c0.87,0,1.88-0.65,3.02-1.94s1.71-2.56,1.71-3.81c0-0.45-0.09-0.79-0.27-1.03    C253.54,164.24,253.31,164.12,253.04,164.12z"/>
		<path class="st3" d="M265.56,169.46c0,0.62-0.55,1.38-1.65,2.25c-1.1,0.88-2.24,1.32-3.42,1.32c-0.98,0-1.74-0.29-2.28-0.87    c-0.54-0.58-0.8-1.39-0.8-2.43c0-1.75,0.59-3.41,1.77-4.99c1.18-1.58,2.47-2.37,3.87-2.37c0.46,0,0.83,0.15,1.12,0.45    c0.29,0.3,0.44,0.66,0.44,1.08c0,0.94-0.46,1.84-1.38,2.7c-0.92,0.86-2.16,1.71-3.7,2.54c-0.32,0.17-0.48,0.38-0.48,0.64    c0,0.51,0.15,0.91,0.44,1.22s0.73,0.46,1.3,0.46c1.31,0,2.66-0.73,4.02-2.18c0.2-0.2,0.35-0.3,0.46-0.3    C265.47,168.99,265.56,169.14,265.56,169.46z M259.19,168.03c2.59-1.54,3.89-2.78,3.89-3.71c0-0.37-0.17-0.55-0.5-0.55    c-0.56,0-1.2,0.41-1.9,1.24C259.98,165.83,259.48,166.84,259.19,168.03z"/>
		<path class="st3" d="M269.33,168.92c0.06-0.11,0.13-0.26,0.22-0.46c0.42-0.95,0.8-1.7,1.15-2.24c0.35-0.54,0.73-1.06,1.15-1.55    c0.42-0.49,0.8-0.87,1.15-1.13c0.35-0.26,0.66-0.44,0.94-0.54s0.55-0.15,0.82-0.15c0.53,0,0.96,0.16,1.3,0.48    c0.34,0.32,0.5,0.7,0.5,1.12c0,0.19-0.06,0.36-0.18,0.51c-0.12,0.15-0.3,0.23-0.55,0.23c-0.26,0-0.49-0.11-0.71-0.34    c-0.22-0.23-0.45-0.34-0.69-0.34c-0.64,0-1.52,0.77-2.64,2.31c-1.12,1.54-1.81,3.24-2.05,5.09c-0.06,0.48-0.18,0.79-0.35,0.94    c-0.17,0.15-0.41,0.23-0.72,0.23c-0.3,0-0.52-0.22-0.65-0.67c-0.13-0.45-0.2-1.2-0.2-2.25c0-0.29,0.01-0.92,0.05-1.9    c0.04-1.15,0.11-2.09,0.22-2.8c0.02-0.12,0.05-0.39,0.09-0.82c0.04-0.47,0.1-0.8,0.16-0.98c0.06-0.18,0.2-0.35,0.39-0.51    c0.2-0.16,0.41-0.24,0.65-0.24c0.23,0,0.4,0.07,0.51,0.22s0.17,0.3,0.17,0.46c0,0.24-0.06,0.57-0.18,1.01    c-0.14,0.48-0.22,0.82-0.25,1c-0.02,0.21-0.05,0.42-0.1,0.65c-0.06,0.26-0.12,0.95-0.18,2.07l-0.01,0.34V168.92z"/>
		<path class="st3" d="M281.6,163.31c0.63-0.05,1.22-0.11,1.78-0.17c0.55-0.06,1.01-0.09,1.37-0.09c0.46,0,0.76,0.04,0.88,0.13    c0.12,0.09,0.18,0.24,0.18,0.45c0,0.5-0.34,0.76-1.04,0.81c-0.89,0.06-1.7,0.13-2.45,0.23c-0.75,0.1-1.15,0.18-1.21,0.24    c-0.06,0.06-0.24,0.79-0.55,2.18c-0.31,1.39-0.47,2.29-0.47,2.71c0,0.67,0.09,1.12,0.27,1.34c0.18,0.22,0.44,0.33,0.8,0.33    c0.53,0,1.26-0.39,2.19-1.18c0.36-0.32,0.64-0.49,0.83-0.49c0.26,0,0.39,0.14,0.39,0.42c0,0.44-0.42,1.01-1.27,1.71    c-0.85,0.7-1.71,1.05-2.6,1.05c-1.48,0-2.22-0.87-2.22-2.61c0-0.63,0.15-1.6,0.46-2.92c0.3-1.31,0.45-2.1,0.45-2.36    c0-0.09-0.07-0.14-0.22-0.14l-0.95,0.08c-0.78,0-1.17-0.31-1.17-0.94c0-0.35,0.18-0.53,0.54-0.53h1.89c0.13,0,0.24-0.06,0.34-0.17    c0.1-0.12,0.24-0.5,0.43-1.17s0.36-1.32,0.5-1.97c0.15-0.64,0.43-0.96,0.86-0.96c0.26,0,0.47,0.09,0.61,0.27    c0.15,0.18,0.22,0.35,0.22,0.51c0,0.09-0.11,0.52-0.33,1.31L281.6,163.31z"/>
	</g>
</g>
</svg>